# This file uses centimeters as units for non-parametric coordinates.

v 25.498207 46.856384 -25.482687
v 24.690605 46.817841 -26.933208
v 25.498283 46.398758 -28.322359
v 27.113579 46.018188 -28.260981
v 27.921165 46.056702 -26.810457
v 27.113487 46.475800 -25.421301
v 29.377846 40.417923 -26.504698
v 28.299309 39.846939 -27.630957
v 28.642891 38.463516 -28.482914
v 30.065010 37.651077 -28.208609
v 31.143547 38.222046 -27.082340
v 30.799965 39.605484 -26.230383
v 14.480370 22.739304 -13.667647
v 15.637703 23.603333 -12.656601
v 14.926537 21.444809 -14.631761
v 16.530708 21.014984 -14.584172
v 17.688820 21.881195 -13.571061
v 17.241997 23.175110 -12.607622
v 16.648933 20.758987 -14.601060
v 17.877251 21.565079 -13.625865
v 16.958382 19.322723 -15.447841
v 18.496574 18.693024 -15.318973
v 19.725197 19.499664 -14.343261
v 19.415337 20.935471 -13.496947
vt 0.716374 0.087574
vt 0.723232 0.087574
vt 0.726662 0.087574
vt 0.723232 0.087574
vt 0.712944 0.087574
vt 0.716374 0.087574
vt 0.716374 0.032237
vt 0.723232 0.033966
vt 0.712944 0.030630
vt 0.716374 0.030733
vt 0.723232 0.032436
vt 0.726662 0.034061
vt 0.716374 0.087574
vt 0.723232 0.087574
vt 0.726662 0.087574
vt 0.723232 0.087574
vt 0.712944 0.087574
vt 0.716374 0.087574
vt 0.716374 0.039404
vt 0.723232 0.040278
vt 0.712944 0.038976
vt 0.716374 0.039431
vt 0.723232 0.040312
vt 0.726662 0.040730
vn 0.232134 0.960294 -0.154752
vn 0.232134 0.960294 -0.154752
vn 0.232134 0.960294 -0.154752
vn 0.232134 0.960294 -0.154752
vn 0.232130 0.960297 -0.154743
vn 0.232130 0.960297 -0.154743
vn 0.232130 0.960297 -0.154743
vn 0.232130 0.960297 -0.154743
vn -0.744827 0.535376 0.398253
vn -0.744827 0.535376 0.398253
vn -0.744827 0.535376 0.398253
vn -0.744827 0.535376 0.398253
vn -0.854416 0.079883 -0.513412
vn -0.854416 0.079883 -0.513412
vn -0.854416 0.079883 -0.513412
vn -0.854416 0.079883 -0.513412
vn -0.083535 -0.451329 -0.888439
vn -0.083535 -0.451329 -0.888439
vn -0.083535 -0.451329 -0.888439
vn -0.083535 -0.451329 -0.888439
vn 0.745592 -0.533870 -0.398844
vn 0.745592 -0.533870 -0.398844
vn 0.745592 -0.533870 -0.398844
vn 0.745592 -0.533870 -0.398844
vn 0.854262 -0.079855 0.513673
vn 0.854262 -0.079855 0.513673
vn 0.854262 -0.079855 0.513673
vn 0.854262 -0.079855 0.513673
vn 0.083473 0.453366 0.887407
vn 0.083473 0.453366 0.887407
vn 0.083473 0.453366 0.887407
vn 0.083473 0.453366 0.887407
vn 0.448716 0.546767 -0.706894
vn 0.448716 0.546767 -0.706894
vn 0.448716 0.546767 -0.706894
vn 0.448716 0.546767 -0.706894
vn 0.448716 0.546772 -0.706891
vn 0.448716 0.546772 -0.706891
vn 0.448716 0.546772 -0.706891
vn 0.448716 0.546772 -0.706891
vn -0.687618 0.645967 0.331524
vn -0.687618 0.645967 0.331524
vn -0.687618 0.645967 0.331524
vn -0.687618 0.645967 0.331524
vn -0.828589 0.135382 -0.543243
vn -0.828589 0.135382 -0.543243
vn -0.828589 0.135382 -0.543243
vn -0.828589 0.135382 -0.543243
vn -0.128658 -0.503026 -0.854641
vn -0.128658 -0.503026 -0.854641
vn -0.128658 -0.503026 -0.854641
vn -0.128658 -0.503026 -0.854642
vn 0.687875 -0.645448 -0.332002
vn 0.687875 -0.645448 -0.332002
vn 0.687875 -0.645448 -0.332002
vn 0.687875 -0.645448 -0.332002
vn 0.828595 -0.135210 0.543276
vn 0.828595 -0.135210 0.543277
vn 0.828595 -0.135210 0.543277
vn 0.828595 -0.135210 0.543277
vn 0.129230 0.504066 0.853942
vn 0.129230 0.504066 0.853942
vn 0.129230 0.504066 0.853942
vn 0.129230 0.504066 0.853942
s off
f 2/1/1 1/2/2 6/3/3 5/4/4
f 3/5/5 2/1/6 5/4/7 4/6/8
f 1/2/9 2/1/10 13/7/11 14/8/12
f 2/1/13 3/5/14 15/9/15 13/7/16
f 3/5/17 4/6/18 16/10/19 15/9/20
f 4/6/21 5/4/22 17/11/23 16/10/24
f 5/4/25 6/3/26 18/12/27 17/11/28
f 6/3/29 1/2/30 14/8/31 18/12/32
f 8/13/33 7/14/34 12/15/35 11/16/36
f 9/17/37 8/13/38 11/16/39 10/18/40
f 7/14/41 8/13/42 19/19/43 20/20/44
f 8/13/45 9/17/46 21/21/47 19/19/48
f 9/17/49 10/18/50 22/22/51 21/21/52
f 10/18/53 11/16/54 23/23/55 22/22/56
f 11/16/57 12/15/58 24/24/59 23/23/60
f 12/15/61 7/14/62 20/20/63 24/24/64
