# This file uses centimeters as units for non-parametric coordinates.

v 0.135750 10.389420 13.079862
v 0.135750 15.843765 -8.594563
v 0.135750 21.179520 -0.954202
v 0.135750 6.527481 -11.301863
v 0.135750 19.334244 7.069505
v 0.135750 15.477798 15.820516
v 3.936630 15.398041 -7.348245
v 3.951080 7.378708 -9.319967
v -3.320791 18.100113 6.004537
v -3.287783 19.472549 -0.148413
v -3.414640 14.566650 -7.285933
v -3.156733 7.146759 -10.142365
v -0.057902 3.411057 -7.074429
v -0.057902 4.086411 -8.848800
v -2.298235 4.923935 -8.485335
v -2.156340 4.238144 -6.632822
v 2.521297 4.839203 -8.152584
v 2.961824 4.652481 -5.893510
v 4.179794 17.913467 6.833039
v 4.140827 19.266357 -0.115117
v 2.430574 11.256973 13.011128
v 2.696199 14.207413 13.095243
v -2.138470 14.296280 13.132283
v -1.890129 11.334732 13.046651
v -3.919815 12.032120 10.759000
v -4.167862 15.073013 10.980969
v 4.398834 11.974747 10.735822
v 4.593369 14.889908 10.831464
v 0.135750 19.758987 14.886394
v -4.167862 16.862076 9.829404
v -2.138470 17.867813 11.980718
v 2.696199 17.093765 11.943677
v 4.593369 16.678848 9.679898
v 4.599617 6.847809 -6.628979
v 4.616219 14.162796 -6.489874
v 4.521297 15.041519 7.553441
v 5.068954 17.277267 -0.230409
v 4.521297 13.457779 8.959462
v -3.749893 14.152405 -6.219469
v -3.596966 7.319458 -6.668730
v -4.155266 17.478592 -0.246493
v -4.348526 15.018936 7.557057
v -4.136417 13.007339 8.356782
v 0.291219 9.010315 2.952643
vt 0.050124 0.197968
vt 0.050124 0.197968
vt 0.050124 0.197968
vt 0.050124 0.197968
vt 0.050124 0.197968
vt 0.050124 0.197968
vt 0.050124 0.197968
vt 0.050124 0.197968
vt 0.050124 0.197968
vt 0.050124 0.197968
vt 0.050124 0.197968
vt 0.050124 0.197968
vt 0.050124 0.197968
vt 0.050124 0.197968
vt 0.050124 0.197968
vt 0.050124 0.197968
vt 0.050124 0.197968
vt 0.050124 0.197968
vt 0.050124 0.197968
vt 0.050124 0.197968
vt 0.050124 0.197968
vt 0.050124 0.197968
vt 0.050124 0.197968
vt 0.050124 0.197968
vt 0.050124 0.197968
vt 0.050124 0.197968
vt 0.050124 0.197968
vt 0.050124 0.197968
vt 0.050124 0.197968
vt 0.050124 0.197968
vt 0.050124 0.197968
vt 0.050124 0.197968
vt 0.050124 0.197968
vt 0.050124 0.197968
vt 0.050124 0.197968
vt 0.050124 0.197968
vt 0.050124 0.197968
vt 0.050124 0.197968
vt 0.050124 0.197968
vt 0.050124 0.197968
vt 0.050124 0.197968
vt 0.050124 0.197968
vt 0.050124 0.197968
vt 0.050124 0.197968
vt 0.050124 0.197968
vt 0.050124 0.197968
vt 0.050124 0.197968
vt 0.050124 0.197968
vt 0.050124 0.197968
vt 0.050124 0.197968
vt 0.050124 0.197968
vt 0.050124 0.197968
vt 0.050124 0.197968
vt 0.050124 0.197968
vt 0.050124 0.197968
vt 0.050124 0.197968
vt 0.050124 0.197968
vt 0.050124 0.197968
vt 0.050124 0.197968
vt 0.050124 0.197968
vt 0.050124 0.197968
vt 0.050124 0.197968
vt 0.050124 0.197968
vt 0.050124 0.197968
vt 0.050124 0.197968
vt 0.050124 0.197968
vt 0.050124 0.197968
vt 0.050124 0.197968
vt 0.050124 0.197968
vt 0.050124 0.197968
vt 0.050124 0.197968
vt 0.050124 0.197968
vt 0.050124 0.197968
vt 0.050124 0.197968
vt 0.050124 0.197968
vt 0.050124 0.197968
vt 0.050124 0.197968
vt 0.050124 0.197968
vt 0.050124 0.197968
vt 0.050124 0.197968
vt 0.050124 0.197968
vt 0.050124 0.197968
vt 0.050124 0.197968
vt 0.050124 0.197968
vt 0.050124 0.197968
vt 0.050124 0.197968
vt 0.050124 0.197968
vt 0.050124 0.197968
vt 0.050124 0.197968
vt 0.050124 0.197968
vt 0.050124 0.197968
vt 0.050124 0.197968
vt 0.050124 0.197968
vt 0.050124 0.197968
vt 0.050124 0.197968
vt 0.050124 0.197968
vt 0.050124 0.197968
vt 0.050124 0.197968
vt 0.050124 0.197968
vt 0.050124 0.197968
vt 0.050124 0.197968
vt 0.050124 0.197968
vt 0.050124 0.197968
vt 0.050124 0.197968
vt 0.050124 0.197968
vt 0.050124 0.197968
vt 0.050124 0.197968
vt 0.050124 0.197968
vt 0.050124 0.197968
vt 0.050124 0.197968
vt 0.050124 0.197968
vt 0.050124 0.197968
vt 0.050124 0.197968
vt 0.050124 0.197968
vt 0.050124 0.197968
vt 0.050124 0.197968
vt 0.050124 0.197968
vt 0.050124 0.197968
vt 0.050124 0.197968
vt 0.050124 0.197968
vt 0.050124 0.197968
vt 0.050124 0.197968
vt 0.050124 0.197968
vt 0.050124 0.197968
vt 0.050124 0.197968
vt 0.050124 0.197968
vt 0.050124 0.197968
vt 0.050124 0.197968
vt 0.050124 0.197968
vt 0.050124 0.197968
vt 0.050124 0.197968
vt 0.050124 0.197968
vt 0.050124 0.197968
vt 0.050124 0.197968
vt 0.050124 0.197968
vt 0.050124 0.197968
vt 0.050124 0.197968
vt 0.050124 0.197968
vt 0.050124 0.197968
vt 0.050124 0.197968
vt 0.050124 0.197968
vt 0.050124 0.197968
vt 0.050124 0.197968
vt 0.050124 0.197968
vt 0.050124 0.197968
vt 0.050124 0.197968
vt 0.050124 0.197968
vt 0.050124 0.197968
vt 0.050124 0.197968
vt 0.050124 0.197968
vt 0.050124 0.197968
vt 0.050124 0.197968
vt 0.050124 0.197968
vt 0.050124 0.197968
vt 0.050124 0.197968
vt 0.050124 0.197968
vt 0.050124 0.197968
vt 0.050124 0.197968
vn 0.374066 0.548925 -0.747500
vn 0.374066 0.548925 -0.747500
vn 0.374066 0.548925 -0.747500
vn 0.374066 0.548925 -0.747500
vn 0.367612 0.046956 -0.928793
vn 0.367612 0.046956 -0.928793
vn 0.367612 0.046956 -0.928793
vn 0.367612 0.046956 -0.928793
vn 0.357105 0.933518 0.031937
vn 0.357105 0.933518 0.031937
vn 0.357105 0.933518 0.031937
vn 0.357105 0.933518 0.031937
vn 0.319126 0.934507 -0.157655
vn 0.319126 0.934507 -0.157655
vn 0.319126 0.934507 -0.157655
vn 0.394682 -0.917968 -0.039511
vn 0.394682 -0.917968 -0.039511
vn 0.394682 -0.917968 -0.039511
vn 0.394682 -0.917968 -0.039511
vn -0.724625 -0.186968 0.663296
vn -0.717238 -0.209444 0.664607
vn -0.700708 -0.255492 0.666132
vn -0.700708 -0.255492 0.666132
vn -0.634260 0.772866 -0.019840
vn -0.571566 0.820499 -0.009638
vn -0.572140 0.819910 -0.020084
vn -0.572140 0.819910 -0.020084
vn -0.368471 0.929043 0.033298
vn -0.368471 0.929043 0.033298
vn -0.368471 0.929043 0.033298
vn -0.368471 0.929043 0.033298
vn -0.461109 0.505384 -0.729359
vn -0.461110 0.505384 -0.729359
vn -0.461109 0.505384 -0.729359
vn -0.461109 0.505384 -0.729359
vn -0.349241 0.095469 -0.932157
vn -0.349241 0.095469 -0.932157
vn -0.349241 0.095469 -0.932157
vn -0.349241 0.095469 -0.932157
vn -0.390149 -0.912981 -0.119376
vn -0.390149 -0.912981 -0.119376
vn -0.390149 -0.912981 -0.119376
vn -0.390149 -0.912981 -0.119376
vn 0.828094 0.463863 0.314788
vn 0.828094 0.463863 0.314788
vn 0.828094 0.463863 0.314788
vn 0.828094 0.463863 0.314788
vn 0.430494 -0.743550 -0.511672
vn 0.430494 -0.743550 -0.511672
vn 0.430494 -0.743550 -0.511672
vn 0.430494 -0.743550 -0.511672
vn -0.355966 -0.774289 -0.523225
vn -0.355966 -0.774289 -0.523225
vn -0.355966 -0.774289 -0.523225
vn -0.355966 -0.774289 -0.523225
vn 0.657110 -0.269135 0.704111
vn 0.657110 -0.269135 0.704111
vn 0.657110 -0.269135 0.704111
vn 0.657110 -0.269135 0.704111
vn 0.770936 -0.079848 0.631887
vn 0.770936 -0.079848 0.631887
vn 0.770936 -0.079848 0.631887
vn 0.770936 -0.079848 0.631887
vn -0.750201 -0.095570 0.654266
vn -0.750201 -0.095570 0.654266
vn -0.717238 -0.209444 0.664607
vn -0.724625 -0.186968 0.663296
vn -0.571566 0.820499 -0.009638
vn -0.634260 0.772866 -0.019840
vn -0.725863 0.685129 0.061013
vn -0.855735 0.123751 0.502399
vn -0.855735 0.123751 0.502399
vn -0.855735 0.123751 0.502399
vn -0.855735 0.123751 0.502399
vn 0.837459 0.140382 0.528162
vn 0.837459 0.140382 0.528162
vn 0.837459 0.140382 0.528162
vn 0.837459 0.140382 0.528162
vn -0.705775 0.279658 0.650901
vn -0.705775 0.279658 0.650902
vn -0.705775 0.279658 0.650902
vn -0.705775 0.279658 0.650902
vn 0.720576 0.306398 0.622005
vn 0.720576 0.306398 0.622005
vn 0.720576 0.306398 0.622005
vn 0.720576 0.306398 0.622005
vn 0.942810 -0.025651 -0.332342
vn 0.942810 -0.025651 -0.332342
vn 0.942810 -0.025651 -0.332342
vn 0.942810 -0.025651 -0.332342
vn 0.761969 -0.636007 -0.122058
vn 0.761969 -0.636007 -0.122058
vn 0.761969 -0.636007 -0.122058
vn 0.761969 -0.636007 -0.122058
vn 0.964353 0.261530 0.040313
vn 0.964353 0.261530 0.040313
vn 0.964353 0.261530 0.040313
vn 0.964353 0.261530 0.040313
vn 0.873358 0.282113 -0.397063
vn 0.873358 0.282113 -0.397063
vn 0.873358 0.282113 -0.397063
vn 0.873358 0.282113 -0.397063
vn 0.997670 -0.066999 0.012845
vn 0.997670 -0.066999 0.012845
vn 0.997670 -0.066999 0.012845
vn 0.999591 -0.017270 -0.022776
vn 0.999591 -0.017270 -0.022776
vn 0.999591 -0.017270 -0.022776
vn 0.999591 -0.017270 -0.022776
vn 0.990332 0.091643 -0.104132
vn 0.990332 0.091643 -0.104132
vn 0.990332 0.091643 -0.104132
vn -0.985762 -0.025277 -0.166234
vn -0.985762 -0.025277 -0.166234
vn -0.985762 -0.025277 -0.166234
vn -0.985762 -0.025277 -0.166234
vn -0.902768 -0.430127 0.000046
vn -0.902768 -0.430128 0.000046
vn -0.902768 -0.430127 0.000046
vn -0.902768 -0.430128 0.000046
vn -0.894648 0.249675 -0.370495
vn -0.894648 0.249675 -0.370495
vn -0.894648 0.249675 -0.370495
vn -0.894648 0.249675 -0.370495
vn -0.933870 0.357155 0.018080
vn -0.933870 0.357155 0.018080
vn -0.933870 0.357155 0.018080
vn -0.933870 0.357155 0.018080
vn -0.994839 -0.085177 0.055130
vn -0.994839 -0.085177 0.055130
vn -0.994839 -0.085177 0.055130
vn -0.998183 -0.028434 0.053117
vn -0.998183 -0.028434 0.053117
vn -0.998183 -0.028434 0.053117
vn -0.998183 -0.028434 0.053117
vn -0.725863 0.685129 0.061013
vn -0.634260 0.772866 -0.019840
vn -0.958383 0.254184 -0.129974
vn 0.087874 -0.644114 0.759865
vn 0.087874 -0.644114 0.759865
vn 0.087874 -0.644114 0.759865
vn -0.179168 -0.631397 0.754478
vn -0.179168 -0.631397 0.754478
vn -0.179168 -0.631397 0.754478
vn 0.535070 -0.840941 0.080739
vn 0.535069 -0.840941 0.080739
vn 0.535069 -0.840941 0.080739
vn -0.599135 -0.798195 0.062631
vn -0.599135 -0.798195 0.062631
vn -0.599135 -0.798195 0.062631
vn -0.435766 -0.892751 0.114474
vn -0.435766 -0.892751 0.114474
vn -0.435766 -0.892751 0.114474
vn 0.447553 -0.887818 0.107126
vn 0.447553 -0.887818 0.107126
vn 0.447553 -0.887818 0.107126
vn 0.933771 0.067059 0.351532
vn 0.933771 0.067059 0.351532
vn 0.933771 0.067059 0.351532
vn 0.768124 -0.293751 0.568943
vn 0.768124 -0.293751 0.568943
vn 0.768124 -0.293751 0.568943
vn 0.835207 -0.549688 -0.016491
vn 0.835207 -0.549688 -0.016491
vn 0.835207 -0.549688 -0.016491
vn 0.874158 -0.330167 0.356143
vn 0.874158 -0.330167 0.356143
vn 0.874158 -0.330167 0.356143
vn 0.884514 -0.386312 -0.261530
vn 0.884514 -0.386312 -0.261530
vn 0.884514 -0.386312 -0.261530
vn 0.898205 -0.291831 -0.328728
vn 0.898205 -0.291831 -0.328728
vn 0.898205 -0.291831 -0.328728
vn -0.939616 0.029539 0.340954
vn -0.939616 0.029539 0.340955
vn -0.939616 0.029539 0.340954
vn -0.812314 -0.271397 0.516225
vn -0.812314 -0.271397 0.516226
vn -0.812314 -0.271397 0.516225
vn -0.890252 -0.297799 0.344626
vn -0.890252 -0.297799 0.344626
vn -0.890252 -0.297799 0.344626
vn -0.835757 -0.542794 -0.082975
vn -0.835757 -0.542794 -0.082975
vn -0.835757 -0.542794 -0.082975
vn -0.799816 -0.577851 -0.162428
vn -0.799816 -0.577851 -0.162428
vn -0.799816 -0.577851 -0.162428
vn -0.875251 -0.255524 -0.410661
vn -0.875251 -0.255524 -0.410661
vn -0.875251 -0.255524 -0.410661
s off
f 20/28/1 7/3/2 2/2/3 3/1/4
f 4/6/5 2/2/6 7/3/7 8/7/8
f 19/27/9 20/28/10 3/1/11 5/4/12
f 29/8/13 19/27/14 5/4/15
f 13/20/16 14/19/17 17/25/18 18/26/19
f 23/31/20 24/32/21 1/14/22 6/13/23
f 9/15/24 31/38/25 29/39/26 5/12/27
f 10/16/28 9/15/29 5/12/30 3/9/31
f 11/17/32 10/16/33 3/9/34 2/10/35
f 12/18/36 11/17/37 2/10/38 4/11/39
f 13/23/40 16/21/41 15/22/42 14/24/43
f 19/27/44 29/41/45 32/37/46 33/42/47
f 4/6/48 8/7/49 17/25/50 14/19/51
f 12/18/52 4/11/53 14/24/54 15/22/55
f 21/29/56 22/30/57 6/95/58 1/5/59
f 27/35/60 28/36/61 22/30/62 21/29/63
f 26/34/64 25/33/65 24/32/66 23/31/67
f 31/38/68 9/15/69 30/96/70
f 23/31/71 6/13/72 29/39/73 31/38/74
f 6/97/75 22/30/76 32/40/77 29/41/78
f 26/98/79 23/99/80 31/100/81 30/101/82
f 22/102/83 28/103/84 33/104/85 32/37/86
f 8/43/87 7/44/88 35/45/89 34/46/90
f 17/47/91 8/48/92 34/49/93 18/50/94
f 20/51/95 19/52/96 36/53/97 37/54/98
f 7/55/99 20/56/100 37/57/101 35/58/102
f 28/59/103 27/60/104 38/61/105
f 33/62/106 28/63/107 38/64/108 36/65/109
f 19/66/110 33/67/111 36/68/112
f 11/69/113 12/70/114 40/71/115 39/72/116
f 12/73/117 15/74/118 16/75/119 40/76/120
f 10/77/121 11/78/122 39/79/123 41/80/124
f 9/81/125 10/82/126 41/83/127 42/84/128
f 25/85/129 26/86/130 43/87/131
f 26/88/132 30/89/133 42/90/134 43/91/135
f 30/92/136 9/93/137 42/94/138
f 13/105/139 18/106/140 44/107/141
f 16/108/142 13/109/143 44/110/144
f 21/111/145 1/112/146 44/113/147
f 1/114/148 24/115/149 44/116/150
f 24/117/151 25/118/152 44/119/153
f 27/120/154 21/121/155 44/122/156
f 34/123/157 35/124/158 44/125/159
f 18/126/160 34/127/161 44/128/162
f 37/129/163 36/130/164 44/131/165
f 35/132/166 37/133/167 44/134/168
f 38/135/169 27/136/170 44/137/171
f 36/138/172 38/139/173 44/140/174
f 39/141/175 40/142/176 44/143/177
f 40/144/178 16/145/179 44/146/180
f 41/147/181 39/148/182 44/149/183
f 42/150/184 41/151/185 44/152/186
f 25/153/187 43/154/188 44/155/189
f 43/156/190 42/157/191 44/158/192
