# This file uses centimeters as units for non-parametric coordinates.

v -0.748049 -0.038116 5.641106
v 0.748049 -0.038116 5.641106
v -0.748049 0.664124 5.641106
v 0.748049 0.664124 5.641106
v -0.748049 0.664124 5.318843
v 0.748049 0.664124 5.318843
v -0.748049 -0.038116 5.318843
v 0.748049 -0.038116 5.318843
v 4.283680 -0.569946 5.391791
v 1.330034 -0.569946 5.731640
v 4.359081 1.324371 5.383116
v 1.254631 1.324371 5.740316
v 4.280994 1.324371 4.747204
v 1.176544 1.324371 5.104404
v 4.205591 -0.569946 4.755880
v 1.251947 -0.569946 5.095728
v 2.806856 -1.620636 5.561716
v 2.728769 -1.620636 4.925804
v 2.728769 0.849762 4.925804
v 2.806856 0.849762 5.561716
v 3.442909 1.465576 5.488531
v 3.364822 1.465576 4.852619
v 2.170805 1.465576 5.634900
v 2.092716 1.465576 4.998989
v 4.551453 0.627167 4.716084
v 4.629541 0.627167 5.351996
v 0.984173 0.627167 5.771436
v 0.906084 0.627167 5.135524
v 2.741947 1.437454 5.033113
v 2.793680 1.437454 5.454408
v 2.268864 1.942429 5.514793
v 2.217129 1.942429 5.093498
v 2.793680 -2.166626 5.454408
v 2.741947 -2.166626 5.033113
v 0.816586 -0.853104 5.254646
v 0.868319 -0.853104 5.675941
v 0.421829 0.676071 5.727314
v 0.370094 0.676071 5.306020
v 0.853308 1.708710 5.250421
v 0.905041 1.708710 5.671716
v 5.113796 0.676071 4.760206
v 5.165531 0.676071 5.181500
v 4.682320 1.708710 5.237100
v 4.630585 1.708710 4.815804
v 4.667307 -0.853104 4.811579
v 4.719040 -0.853104 5.232874
v 3.318497 1.942429 5.394022
v 3.266764 1.942429 4.972727
v -4.283679 -0.569946 5.391791
v -1.330034 -0.569946 5.731640
v -4.359082 1.324371 5.383116
v -1.254631 1.324371 5.740316
v -4.280994 1.324371 4.747204
v -1.176544 1.324371 5.104404
v -4.205591 -0.569946 4.755880
v -1.251947 -0.569946 5.095728
v -2.806856 -1.620636 5.561716
v -2.728769 -1.620636 4.925804
v -2.728769 0.849762 4.925804
v -2.806856 0.849762 5.561716
v -3.442909 1.465576 5.488531
v -3.364822 1.465576 4.852619
v -2.170805 1.465576 5.634900
v -2.092716 1.465576 4.998989
v -4.551454 0.627167 4.716084
v -4.629541 0.627167 5.351996
v -0.984173 0.627167 5.771436
v -0.906084 0.627167 5.135524
v -2.741947 1.437454 5.033113
v -2.793680 1.437454 5.454408
v -2.268864 1.942429 5.514793
v -2.217129 1.942429 5.093498
v -2.793680 -2.166626 5.454408
v -2.741947 -2.166626 5.033113
v -0.816586 -0.853104 5.254646
v -0.868319 -0.853104 5.675941
v -0.421829 0.676071 5.727314
v -0.370094 0.676071 5.306020
v -0.853308 1.708710 5.250421
v -0.905041 1.708710 5.671716
v -5.113797 0.676071 4.760206
v -5.165531 0.676071 5.181500
v -4.682319 1.708710 5.237100
v -4.630585 1.708710 4.815804
v -4.667307 -0.853104 4.811579
v -4.719041 -0.853104 5.232874
v -3.318497 1.942429 5.394022
v -3.266764 1.942429 4.972727
v -5.954808 0.053040 4.151463
v -4.901955 0.053040 5.180362
v -5.954808 0.951584 4.151463
v -4.901955 0.951584 5.180362
v -5.531672 0.951584 3.918294
v -4.634629 0.951584 4.794784
v -5.531672 0.053040 3.918294
v -4.634629 0.053040 4.794784
v -6.424558 1.464386 -5.771436
v -6.799030 1.464386 -5.638741
v -6.799030 2.166611 -5.638741
v -6.424558 2.166611 -5.771436
v 5.954807 0.053040 4.151463
v 4.901955 0.053040 5.180362
v 5.954807 0.951584 4.151463
v 4.901955 0.951584 5.180362
v 5.531673 0.951584 3.918294
v 4.634628 0.951584 4.794784
v 5.531673 0.053040 3.918294
v 4.634628 0.053040 4.794784
v 6.424557 1.464386 -5.771436
v 6.799030 1.464386 -5.638741
v 6.799030 2.166611 -5.638741
v 6.424557 2.166611 -5.771436
vt 0.574684 0.872059
vt 0.573691 0.872060
vt 0.573687 0.871578
vt 0.574683 0.871577
vt 0.573704 0.871576
vt 0.574686 0.871576
vt 0.573708 0.872052
vt 0.574687 0.872051
vt 0.090062 0.226702
vt 0.089919 0.226567
vt 0.089715 0.226595
vt 0.089662 0.226743
vt 0.089746 0.226990
vt 0.090062 0.227201
vt 0.574626 0.874386
vt 0.574511 0.874312
vt 0.574511 0.874384
vt 0.574629 0.874457
vt 0.090068 0.227140
vt 0.089762 0.226935
vt 0.089681 0.226695
vt 0.089733 0.226551
vt 0.089930 0.226524
vt 0.090068 0.226655
vt 0.574628 0.874896
vt 0.574249 0.874766
vt 0.574252 0.874697
vt 0.574626 0.874829
vt 0.574127 0.874574
vt 0.574210 0.874424
vt 0.574214 0.874353
vt 0.574133 0.874503
vt 0.575118 0.874485
vt 0.575037 0.874338
vt 0.575046 0.874409
vt 0.575127 0.874555
vt 0.575000 0.874683
vt 0.575007 0.874751
vt 0.090405 0.226560
vt 0.090458 0.226707
vt 0.090376 0.226946
vt 0.090207 0.226528
vt 0.574742 0.874308
vt 0.574746 0.874379
vt 0.090380 0.227002
vt 0.090466 0.226756
vt 0.090411 0.226605
vt 0.090205 0.226571
vt 0.574629 0.874553
vt 0.574483 0.874465
vt 0.574483 0.874357
vt 0.574626 0.874447
vt 0.574626 0.874769
vt 0.574325 0.874647
vt 0.574321 0.874751
vt 0.574629 0.874871
vt 0.574233 0.874486
vt 0.574280 0.874383
vt 0.574275 0.874490
vt 0.574227 0.874593
vt 0.575030 0.874577
vt 0.574982 0.874477
vt 0.574970 0.874370
vt 0.575017 0.874472
vt 0.574926 0.874635
vt 0.574936 0.874739
vt 0.574775 0.874459
vt 0.574768 0.874352
vt 0.090062 0.226702
vt 0.090062 0.227201
vt 0.089746 0.226990
vt 0.089662 0.226743
vt 0.089715 0.226595
vt 0.089919 0.226567
vt 0.574626 0.874386
vt 0.574629 0.874457
vt 0.574511 0.874384
vt 0.574511 0.874312
vt 0.090068 0.227140
vt 0.090068 0.226655
vt 0.089930 0.226524
vt 0.089733 0.226551
vt 0.089681 0.226695
vt 0.089762 0.226935
vt 0.574628 0.874896
vt 0.574626 0.874829
vt 0.574252 0.874697
vt 0.574249 0.874766
vt 0.574127 0.874574
vt 0.574133 0.874503
vt 0.574214 0.874353
vt 0.574210 0.874424
vt 0.575118 0.874485
vt 0.575127 0.874555
vt 0.575046 0.874409
vt 0.575037 0.874338
vt 0.575000 0.874683
vt 0.575007 0.874751
vt 0.090405 0.226560
vt 0.090207 0.226528
vt 0.090376 0.226946
vt 0.090458 0.226707
vt 0.574746 0.874379
vt 0.574742 0.874308
vt 0.090380 0.227002
vt 0.090205 0.226571
vt 0.090411 0.226605
vt 0.090466 0.226756
vt 0.574629 0.874553
vt 0.574483 0.874465
vt 0.574483 0.874357
vt 0.574626 0.874447
vt 0.574626 0.874769
vt 0.574325 0.874647
vt 0.574321 0.874751
vt 0.574629 0.874871
vt 0.574233 0.874486
vt 0.574280 0.874383
vt 0.574275 0.874490
vt 0.574227 0.874593
vt 0.575030 0.874577
vt 0.574982 0.874477
vt 0.574970 0.874370
vt 0.575017 0.874472
vt 0.574926 0.874635
vt 0.574936 0.874739
vt 0.574775 0.874459
vt 0.574768 0.874352
vt 0.574684 0.872059
vt 0.573691 0.872060
vt 0.573687 0.871578
vt 0.574683 0.871577
vt 0.573704 0.871576
vt 0.574686 0.871576
vt 0.573708 0.872052
vt 0.574687 0.872051
vt 0.574687 0.872051
vt 0.574684 0.872059
vt 0.574683 0.871577
vt 0.574686 0.871576
vt 0.574684 0.872059
vt 0.573691 0.872060
vt 0.573687 0.871578
vt 0.574683 0.871577
vt 0.573704 0.871576
vt 0.574686 0.871576
vt 0.573708 0.872052
vt 0.574687 0.872051
vt 0.574687 0.872051
vt 0.574684 0.872059
vt 0.574683 0.871577
vt 0.574686 0.871576
vn 0.000000 0.000000 1.000000
vn 0.000000 0.000000 1.000000
vn 0.000000 0.000000 1.000000
vn 0.000000 0.000000 1.000000
vn 0.000000 1.000000 0.000000
vn 0.000000 1.000000 0.000000
vn 0.000000 1.000000 0.000000
vn 0.000000 1.000000 0.000000
vn 0.000000 0.000000 -1.000000
vn 0.000000 0.000000 -1.000000
vn 0.000000 0.000000 -1.000000
vn 0.000000 0.000000 -1.000000
vn 0.000000 -1.000000 0.000000
vn 0.000000 -1.000000 0.000000
vn 0.000000 -1.000000 0.000000
vn 0.000000 -1.000000 0.000000
vn 0.114296 0.005502 0.993432
vn 0.122568 0.035809 0.991814
vn 0.091597 0.033892 0.995219
vn 0.076355 -0.000630 0.997081
vn 0.074093 -0.034157 0.996666
vn 0.114070 -0.068477 0.991110
vn 0.003330 0.999994 -0.000410
vn 0.138401 0.990230 -0.016995
vn 0.142014 0.989711 -0.017439
vn -0.003330 0.999994 0.000408
vn -0.114070 -0.068478 -0.991110
vn -0.154228 -0.034161 -0.987445
vn -0.152114 -0.000632 -0.988363
vn -0.136850 0.033884 -0.990012
vn -0.105916 0.035822 -0.993730
vn -0.114296 0.005502 -0.993432
vn 0.002704 -0.999996 -0.000332
vn -0.556864 -0.827784 0.068380
vn -0.556864 -0.827784 0.068380
vn -0.002703 -0.999996 0.000332
vn -0.992439 0.014556 0.121869
vn -0.897926 0.426112 0.110263
vn -0.897926 0.426112 0.110263
vn -0.992443 0.014298 0.121870
vn 0.992439 0.014555 -0.121870
vn 0.897926 0.426111 -0.110265
vn 0.897926 0.426111 -0.110265
vn 0.992443 0.014298 -0.121871
vn 0.556864 -0.827784 -0.068380
vn 0.556864 -0.827784 -0.068380
vn 0.002704 -0.999996 -0.000332
vn -0.002703 -0.999996 0.000332
vn -0.091597 0.033892 -0.995219
vn -0.076355 -0.000630 -0.997081
vn -0.074094 -0.034157 -0.996666
vn -0.114070 -0.068478 -0.991110
vn -0.114296 0.005502 -0.993432
vn -0.122569 0.035809 -0.991814
vn 0.166586 0.985815 -0.020456
vn 0.166586 0.985815 -0.020456
vn -0.142013 0.989711 0.017438
vn -0.138402 0.990230 0.016995
vn 0.154228 -0.034161 0.987445
vn 0.152114 -0.000632 0.988363
vn 0.136850 0.033884 0.990012
vn 0.105916 0.035822 0.993730
vn 0.114296 0.005502 0.993432
vn 0.114070 -0.068477 0.991110
vn -0.142013 0.989711 0.017438
vn 0.003330 0.999994 -0.000410
vn -0.003330 0.999994 0.000408
vn -0.138402 0.990230 0.016995
vn 0.138401 0.990230 -0.016995
vn -0.166586 0.985815 0.020456
vn -0.166586 0.985815 0.020456
vn 0.142014 0.989711 -0.017439
vn 0.952269 -0.281973 -0.116936
vn 0.992439 0.014555 -0.121870
vn 0.992443 0.014298 -0.121871
vn 0.952269 -0.281973 -0.116936
vn -0.952269 -0.281974 0.116937
vn -0.992439 0.014556 0.121869
vn -0.992443 0.014298 0.121870
vn -0.952269 -0.281974 0.116937
vn 0.114296 0.005502 0.993432
vn 0.112510 0.181437 0.976945
vn 0.151249 0.214623 0.964915
vn 0.122568 0.035809 0.991814
vn -0.105916 0.035822 -0.993730
vn -0.071597 0.214422 -0.974113
vn -0.112512 0.181438 -0.976945
vn -0.114296 0.005502 -0.993432
vn -0.114070 -0.068478 -0.991110
vn -0.112118 -0.186214 -0.976091
vn -0.270637 -0.127492 -0.954202
vn -0.154228 -0.034161 -0.987445
vn 0.074093 -0.034157 0.996666
vn -0.046507 -0.127105 0.990798
vn 0.112118 -0.186214 0.976091
vn 0.114070 -0.068477 0.991110
vn -0.152114 -0.000632 -0.988363
vn -0.308036 -0.001104 -0.951374
vn -0.229742 0.159967 -0.960015
vn -0.136850 0.033884 -0.990012
vn 0.091597 0.033892 0.995219
vn -0.005657 0.159525 0.987178
vn -0.083326 -0.001116 0.996522
vn 0.076355 -0.000630 0.997081
vn 0.152114 -0.000632 0.988363
vn 0.308035 -0.001104 0.951374
vn 0.229742 0.159967 0.960015
vn 0.136850 0.033884 0.990012
vn -0.091597 0.033892 -0.995219
vn 0.005657 0.159525 -0.987178
vn 0.083325 -0.001115 -0.996522
vn -0.076355 -0.000630 -0.997081
vn -0.074094 -0.034157 -0.996666
vn 0.046506 -0.127104 -0.990799
vn -0.112118 -0.186214 -0.976091
vn -0.114070 -0.068478 -0.991110
vn 0.114070 -0.068477 0.991110
vn 0.112118 -0.186214 0.976091
vn 0.270637 -0.127491 0.954202
vn 0.154228 -0.034161 0.987445
vn 0.136850 0.033884 0.990012
vn 0.229742 0.159967 0.960015
vn 0.071597 0.214422 0.974113
vn 0.105916 0.035822 0.993730
vn -0.122569 0.035809 -0.991814
vn -0.151250 0.214624 -0.964915
vn 0.005657 0.159525 -0.987178
vn -0.091597 0.033892 -0.995219
vn 0.105916 0.035822 0.993730
vn 0.071597 0.214422 0.974113
vn 0.112510 0.181437 0.976945
vn 0.114296 0.005502 0.993432
vn -0.114296 0.005502 -0.993432
vn -0.112512 0.181438 -0.976945
vn -0.151250 0.214624 -0.964915
vn -0.122569 0.035809 -0.991814
vn 0.122568 0.035809 0.991814
vn 0.151249 0.214623 0.964915
vn -0.005657 0.159525 0.987178
vn 0.091597 0.033892 0.995219
vn -0.136850 0.033884 -0.990012
vn -0.229742 0.159967 -0.960015
vn -0.071597 0.214422 -0.974113
vn -0.105916 0.035822 -0.993730
vn 0.154228 -0.034161 0.987445
vn 0.270637 -0.127491 0.954202
vn 0.308035 -0.001104 0.951374
vn 0.152114 -0.000632 0.988363
vn -0.076355 -0.000630 -0.997081
vn 0.083325 -0.001115 -0.996522
vn 0.046506 -0.127104 -0.990799
vn -0.074094 -0.034157 -0.996666
vn -0.154228 -0.034161 -0.987445
vn -0.270637 -0.127492 -0.954202
vn -0.308036 -0.001104 -0.951374
vn -0.152114 -0.000632 -0.988363
vn 0.076355 -0.000630 0.997081
vn -0.083326 -0.001116 0.996522
vn -0.046507 -0.127105 0.990798
vn 0.074093 -0.034157 0.996666
vn -0.114296 0.005502 0.993432
vn -0.114070 -0.068477 0.991110
vn -0.074093 -0.034157 0.996666
vn -0.076355 -0.000630 0.997081
vn -0.091597 0.033892 0.995219
vn -0.122569 0.035809 0.991814
vn -0.003330 0.999994 -0.000410
vn 0.003330 0.999994 0.000408
vn -0.142014 0.989711 -0.017439
vn -0.138401 0.990230 -0.016995
vn 0.114070 -0.068478 -0.991110
vn 0.114296 0.005502 -0.993432
vn 0.105915 0.035822 -0.993730
vn 0.136850 0.033884 -0.990012
vn 0.152114 -0.000632 -0.988363
vn 0.154228 -0.034161 -0.987445
vn -0.002704 -0.999996 -0.000332
vn 0.002703 -0.999996 0.000332
vn 0.556864 -0.827784 0.068380
vn 0.556864 -0.827784 0.068380
vn 0.992439 0.014556 0.121869
vn 0.992443 0.014298 0.121870
vn 0.897926 0.426112 0.110263
vn 0.897926 0.426112 0.110263
vn -0.992439 0.014556 -0.121869
vn -0.992443 0.014298 -0.121870
vn -0.897926 0.426112 -0.110263
vn -0.897926 0.426112 -0.110263
vn -0.556864 -0.827784 -0.068381
vn 0.002703 -0.999996 0.000332
vn -0.002704 -0.999996 -0.000332
vn -0.556864 -0.827784 -0.068381
vn 0.091597 0.033892 -0.995219
vn 0.122568 0.035809 -0.991814
vn 0.114296 0.005502 -0.993432
vn 0.114070 -0.068478 -0.991110
vn 0.074093 -0.034157 -0.996666
vn 0.076355 -0.000630 -0.997081
vn -0.166586 0.985815 -0.020456
vn 0.138402 0.990230 0.016995
vn 0.142013 0.989711 0.017438
vn -0.166586 0.985815 -0.020456
vn -0.154228 -0.034161 0.987445
vn -0.114070 -0.068477 0.991110
vn -0.114296 0.005502 0.993432
vn -0.105916 0.035822 0.993730
vn -0.136850 0.033884 0.990012
vn -0.152114 -0.000632 0.988363
vn 0.142013 0.989711 0.017438
vn 0.138402 0.990230 0.016995
vn 0.003330 0.999994 0.000408
vn -0.003330 0.999994 -0.000410
vn -0.138401 0.990230 -0.016995
vn -0.142014 0.989711 -0.017439
vn 0.166586 0.985815 0.020456
vn 0.166586 0.985815 0.020456
vn -0.952269 -0.281973 -0.116936
vn -0.952269 -0.281973 -0.116936
vn -0.992443 0.014298 -0.121870
vn -0.992439 0.014556 -0.121869
vn 0.952269 -0.281974 0.116937
vn 0.952269 -0.281974 0.116937
vn 0.992443 0.014298 0.121870
vn 0.992439 0.014556 0.121869
vn -0.114296 0.005502 0.993432
vn -0.122569 0.035809 0.991814
vn -0.151249 0.214623 0.964915
vn -0.112511 0.181437 0.976945
vn 0.105915 0.035822 -0.993730
vn 0.114296 0.005502 -0.993432
vn 0.112511 0.181438 -0.976945
vn 0.071597 0.214422 -0.974113
vn 0.114070 -0.068478 -0.991110
vn 0.154228 -0.034161 -0.987445
vn 0.270637 -0.127492 -0.954202
vn 0.112117 -0.186214 -0.976091
vn -0.074093 -0.034157 0.996666
vn -0.114070 -0.068477 0.991110
vn -0.112118 -0.186213 0.976091
vn 0.046507 -0.127105 0.990798
vn 0.152114 -0.000632 -0.988363
vn 0.136850 0.033884 -0.990012
vn 0.229742 0.159967 -0.960015
vn 0.308036 -0.001104 -0.951374
vn -0.091597 0.033892 0.995219
vn -0.076355 -0.000630 0.997081
vn 0.083326 -0.001116 0.996522
vn 0.005658 0.159525 0.987178
vn -0.152114 -0.000632 0.988363
vn -0.136850 0.033884 0.990012
vn -0.229742 0.159967 0.960015
vn -0.308035 -0.001104 0.951374
vn 0.091597 0.033892 -0.995219
vn 0.076355 -0.000630 -0.997081
vn -0.083325 -0.001115 -0.996522
vn -0.005657 0.159525 -0.987178
vn 0.074093 -0.034157 -0.996666
vn 0.114070 -0.068478 -0.991110
vn 0.112117 -0.186214 -0.976091
vn -0.046506 -0.127104 -0.990799
vn -0.114070 -0.068477 0.991110
vn -0.154228 -0.034161 0.987445
vn -0.270637 -0.127491 0.954202
vn -0.112118 -0.186213 0.976091
vn -0.136850 0.033884 0.990012
vn -0.105916 0.035822 0.993730
vn -0.071597 0.214423 0.974113
vn -0.229742 0.159967 0.960015
vn 0.122568 0.035809 -0.991814
vn 0.091597 0.033892 -0.995219
vn -0.005657 0.159525 -0.987178
vn 0.151249 0.214624 -0.964915
vn -0.105916 0.035822 0.993730
vn -0.114296 0.005502 0.993432
vn -0.112511 0.181437 0.976945
vn -0.071597 0.214423 0.974113
vn 0.114296 0.005502 -0.993432
vn 0.122568 0.035809 -0.991814
vn 0.151249 0.214624 -0.964915
vn 0.112511 0.181438 -0.976945
vn -0.122569 0.035809 0.991814
vn -0.091597 0.033892 0.995219
vn 0.005658 0.159525 0.987178
vn -0.151249 0.214623 0.964915
vn 0.136850 0.033884 -0.990012
vn 0.105915 0.035822 -0.993730
vn 0.071597 0.214422 -0.974113
vn 0.229742 0.159967 -0.960015
vn -0.154228 -0.034161 0.987445
vn -0.152114 -0.000632 0.988363
vn -0.308035 -0.001104 0.951374
vn -0.270637 -0.127491 0.954202
vn 0.076355 -0.000630 -0.997081
vn 0.074093 -0.034157 -0.996666
vn -0.046506 -0.127104 -0.990799
vn -0.083325 -0.001115 -0.996522
vn 0.154228 -0.034161 -0.987445
vn 0.152114 -0.000632 -0.988363
vn 0.308036 -0.001104 -0.951374
vn 0.270637 -0.127492 -0.954202
vn -0.076355 -0.000630 0.997081
vn -0.074093 -0.034157 0.996666
vn 0.046507 -0.127105 0.990798
vn 0.083326 -0.001116 0.996522
vn -0.698924 0.000000 0.715196
vn -0.698924 0.000000 0.715196
vn -0.698924 0.000000 0.715196
vn -0.698924 0.000000 0.715196
vn 0.000000 1.000000 -0.000000
vn 0.000000 1.000000 -0.000000
vn 0.000000 1.000000 -0.000000
vn 0.000000 1.000000 -0.000000
vn 0.698865 0.000000 -0.715254
vn 0.698865 0.000000 -0.715254
vn 0.698865 0.000000 -0.715254
vn 0.698865 0.000000 -0.715254
vn 0.000000 -1.000000 -0.000000
vn 0.000000 -1.000000 -0.000000
vn 0.000000 -1.000000 -0.000000
vn 0.000000 -1.000000 -0.000000
vn -0.334003 0.000000 -0.942572
vn -0.334003 0.000000 -0.942572
vn -0.334003 0.000000 -0.942572
vn -0.334003 0.000000 -0.942572
vn -0.063119 -0.988474 -0.137604
vn -0.063119 -0.988474 -0.137604
vn -0.063119 -0.988474 -0.137604
vn -0.063119 -0.988474 -0.137604
vn -0.996303 0.000000 0.085912
vn -0.996303 0.000000 0.085912
vn -0.996303 0.000000 0.085912
vn -0.996303 0.000000 0.085912
vn 0.054501 0.991419 0.118816
vn 0.054501 0.991419 0.118816
vn 0.054501 0.991419 0.118816
vn 0.054501 0.991419 0.118816
vn 0.995781 0.000000 -0.091759
vn 0.995781 0.000000 -0.091759
vn 0.995781 0.000000 -0.091759
vn 0.995781 0.000000 -0.091759
vn 0.698924 0.000000 0.715196
vn 0.698924 0.000000 0.715196
vn 0.698924 0.000000 0.715196
vn 0.698924 0.000000 0.715196
vn 0.000000 1.000000 0.000000
vn 0.000000 1.000000 0.000000
vn 0.000000 1.000000 0.000000
vn 0.000000 1.000000 0.000000
vn -0.698864 0.000000 -0.715254
vn -0.698864 0.000000 -0.715254
vn -0.698864 0.000000 -0.715254
vn -0.698864 0.000000 -0.715254
vn 0.000000 -1.000000 0.000000
vn 0.000000 -1.000000 0.000000
vn 0.000000 -1.000000 0.000000
vn 0.000000 -1.000000 0.000000
vn 0.334002 0.000000 -0.942572
vn 0.334002 0.000000 -0.942572
vn 0.334002 0.000000 -0.942572
vn 0.334002 0.000000 -0.942572
vn 0.063119 -0.988474 -0.137604
vn 0.063119 -0.988474 -0.137604
vn 0.063119 -0.988474 -0.137604
vn 0.063119 -0.988474 -0.137604
vn 0.996303 0.000000 0.085913
vn 0.996303 0.000000 0.085913
vn 0.996303 0.000000 0.085913
vn 0.996303 0.000000 0.085913
vn -0.054501 0.991419 0.118816
vn -0.054501 0.991419 0.118816
vn -0.054501 0.991419 0.118816
vn -0.054501 0.991419 0.118816
vn -0.995781 0.000000 -0.091759
vn -0.995781 0.000000 -0.091759
vn -0.995781 0.000000 -0.091759
vn -0.995781 0.000000 -0.091759
s off
f 1/1/1 2/2/2 4/3/3 3/4/4
f 3/4/5 4/3/6 6/5/7 5/6/8
f 5/6/9 6/5/10 8/7/11 7/8/12
f 7/8/13 8/7/14 2/2/15 1/1/16
f 20/9/17 23/10/18 12/11/19 27/12/20 10/13/21 17/14/22
f 29/15/23 32/16/24 31/17/25 30/18/26
f 18/19/27 16/20/28 28/21/29 14/22/30 24/23/31 19/24/32
f 33/25/33 36/26/34 35/27/35 34/28/36
f 37/29/37 40/30/38 39/31/39 38/32/40
f 41/33/41 44/34/42 43/35/43 42/36/44
f 45/37/45 46/38/46 33/25/47 34/28/48
f 13/39/49 25/40/50 15/41/51 18/19/52 19/24/53 22/42/54
f 43/35/55 44/34/56 48/43/57 47/44/58
f 9/45/59 26/46/60 11/47/61 21/48/62 20/9/63 17/14/64
f 48/43/65 29/15/66 30/18/67 47/44/68
f 32/16/69 39/31/70 40/30/71 31/17/72
f 45/37/73 41/33/74 42/36/75 46/38/76
f 36/26/77 37/29/78 38/32/79 35/27/80
f 20/49/81 30/18/82 31/17/83 23/50/84
f 24/51/85 32/16/86 29/15/87 19/52/88
f 18/53/89 34/28/90 35/27/91 16/54/92
f 10/55/93 36/26/94 33/25/95 17/56/96
f 28/57/97 38/32/98 39/31/99 14/58/100
f 12/59/101 40/30/102 37/29/103 27/60/104
f 26/61/105 42/36/106 43/35/107 11/62/108
f 13/63/109 44/34/110 41/33/111 25/64/112
f 15/65/113 45/37/114 34/28/115 18/53/116
f 17/56/117 33/25/118 46/38/119 9/66/120
f 11/62/121 43/35/122 47/44/123 21/67/124
f 22/68/125 48/43/126 44/34/127 13/63/128
f 21/67/129 47/44/130 30/18/131 20/49/132
f 19/52/133 29/15/134 48/43/135 22/68/136
f 23/50/137 31/17/138 40/30/139 12/59/140
f 14/58/141 39/31/142 32/16/143 24/51/144
f 9/66/145 46/38/146 42/36/147 26/61/148
f 25/64/149 41/33/150 45/37/151 15/65/152
f 16/54/153 35/27/154 38/32/155 28/57/156
f 27/60/157 37/29/158 36/26/159 10/55/160
f 60/69/161 57/70/162 50/71/163 67/72/164 52/73/165 63/74/166
f 69/75/167 70/76/168 71/77/169 72/78/170
f 58/79/171 59/80/172 64/81/173 54/82/174 68/83/175 56/84/176
f 73/85/177 74/86/178 75/87/179 76/88/180
f 77/89/181 78/90/182 79/91/183 80/92/184
f 81/93/185 82/94/186 83/95/187 84/96/188
f 85/97/189 74/86/190 73/85/191 86/98/192
f 53/99/193 62/100/194 59/80/195 58/79/196 55/101/197 65/102/198
f 83/95/199 87/103/200 88/104/201 84/96/202
f 49/105/203 57/70/204 60/69/205 61/106/206 51/107/207 66/108/208
f 88/104/209 87/103/210 70/76/211 69/75/212
f 72/78/213 71/77/214 80/92/215 79/91/216
f 85/97/217 86/98/218 82/94/219 81/93/220
f 76/88/221 75/87/222 78/90/223 77/89/224
f 60/109/225 63/110/226 71/77/227 70/76/228
f 64/111/229 59/112/230 69/75/231 72/78/232
f 58/113/233 56/114/234 75/87/235 74/86/236
f 50/115/237 57/116/238 73/85/239 76/88/240
f 68/117/241 54/118/242 79/91/243 78/90/244
f 52/119/245 67/120/246 77/89/247 80/92/248
f 66/121/249 51/122/250 83/95/251 82/94/252
f 53/123/253 65/124/254 81/93/255 84/96/256
f 55/125/257 58/113/258 74/86/259 85/97/260
f 57/116/261 49/126/262 86/98/263 73/85/264
f 51/122/265 61/127/266 87/103/267 83/95/268
f 62/128/269 53/123/270 84/96/271 88/104/272
f 61/127/273 60/109/274 70/76/275 87/103/276
f 59/112/277 62/128/278 88/104/279 69/75/280
f 63/110/281 52/119/282 80/92/283 71/77/284
f 54/118/285 64/111/286 72/78/287 79/91/288
f 49/126/289 66/121/290 82/94/291 86/98/292
f 65/124/293 55/125/294 85/97/295 81/93/296
f 56/114/297 68/117/298 78/90/299 75/87/300
f 67/120/301 50/115/302 76/88/303 77/89/304
f 89/129/305 90/130/306 92/131/307 91/132/308
f 91/132/309 92/131/310 94/133/311 93/134/312
f 93/134/313 94/133/314 96/135/315 95/136/316
f 95/136/317 96/135/318 90/130/319 89/129/320
f 97/137/321 98/138/322 99/139/323 100/140/324
f 95/136/325 89/129/326 98/138/327 97/137/328
f 89/129/329 91/132/330 99/139/331 98/138/332
f 91/132/333 93/134/334 100/140/335 99/139/336
f 93/134/337 95/136/338 97/137/339 100/140/340
f 101/141/341 103/144/342 104/143/343 102/142/344
f 103/144/345 105/146/346 106/145/347 104/143/348
f 105/146/349 107/148/350 108/147/351 106/145/352
f 107/148/353 101/141/354 102/142/355 108/147/356
f 109/149/357 112/152/358 111/151/359 110/150/360
f 107/148/361 109/149/362 110/150/363 101/141/364
f 101/141/365 110/150/366 111/151/367 103/144/368
f 103/144/369 111/151/370 112/152/371 105/146/372
f 105/146/373 112/152/374 109/149/375 107/148/376
