# This file uses centimeters as units for non-parametric coordinates.

v 0.730698 -40.439640 -1.161942
v -0.730698 -40.439640 -1.161942
v -1.461411 -40.439640 -0.000008
v -0.730713 -40.439640 1.161957
v 0.730698 -40.439640 1.161957
v 1.461411 -40.439640 -0.000008
v 0.730698 14.083820 -1.161942
v -0.730698 14.083820 -1.161942
v -1.461411 14.083820 -0.000008
v -0.730713 14.083820 1.161957
v 0.730698 14.083820 1.161957
v 1.461411 14.083820 -0.000008
v 0.000000 -40.439640 -0.000008
v 0.000000 14.083820 -0.000008
v 1.079605 -38.062054 -1.716644
v -1.079575 -38.062054 -1.716644
v -2.159180 -38.062054 -0.000008
v -1.079590 -38.062054 1.716629
v 1.079605 -38.062054 1.716629
v 2.159195 -38.062054 -0.000008
v 0.730698 10.174702 -1.161942
v 1.461411 10.174702 -0.000008
v 0.730698 10.174702 1.161957
v -0.730713 10.174702 1.161957
v -1.461411 10.174702 -0.000008
v -0.730698 10.174702 -1.161942
v 0.730698 7.062534 -1.161942
v -0.730698 7.062534 -1.161942
v -1.461411 7.062534 -0.000008
v -0.730713 7.062534 1.161957
v 0.730698 7.062534 1.161957
v 1.461411 7.062534 -0.000008
v 1.079605 9.297428 -1.716644
v 2.159195 9.297428 -0.000008
v 1.079605 9.297428 1.716629
v -1.079590 9.297428 1.716629
v -2.159180 9.297428 -0.000008
v -1.079575 9.297428 -1.716644
v 1.079605 7.847996 -1.716644
v -1.079575 7.847996 -1.716644
v -2.159180 7.847996 -0.000008
v -1.079590 7.847996 1.716629
v 1.079605 7.847996 1.716629
v 2.159195 7.847996 -0.000008
v 0.730698 -37.159039 -1.161942
v -0.730698 -37.159039 -1.161942
v -1.461411 -37.159039 -0.000008
v -0.730713 -37.159039 1.161957
v 0.730698 -37.159039 1.161957
v 1.461411 -37.159039 -0.000008
v 1.079605 -39.571518 -1.716644
v -1.079575 -39.571518 -1.716644
v -2.159180 -39.571518 -0.000008
v -1.079590 -39.571518 1.716629
v 1.079605 -39.571518 1.716629
v 2.159195 -39.571518 -0.000008
v 0.730698 0.484051 -1.161942
v 1.461411 0.484051 -0.000008
v 0.730698 0.484051 1.161957
v -0.730713 0.484051 1.161957
v -1.461411 0.484051 -0.000008
v -0.730698 0.484051 -1.161942
v 0.730698 -29.752407 -1.161942
v -0.730698 -29.752407 -1.161942
v -1.461411 -29.752407 -0.000008
v -0.730713 -29.752407 1.161957
v 0.730698 -29.752407 1.161957
v 1.461411 -29.752407 -0.000008
v 3.759460 11.539997 -0.855484
v 3.197037 15.385899 -1.729836
v 6.082932 18.690907 -0.855484
v 1.975876 19.144230 -1.729836
v 0.000000 23.110416 -0.855484
v -1.975876 19.144230 -1.729836
v -6.082932 18.690907 -0.855484
v -3.197021 15.385899 -1.729836
v -3.759476 11.539997 -0.855484
v 0.000000 13.063122 -1.729836
v 3.759460 11.539997 0.855469
v 3.197037 15.385899 1.729820
v 6.082932 18.690907 0.855469
v 1.975876 19.144230 1.729820
v 0.000000 23.110416 0.855469
v -1.975876 19.144230 1.729820
v -6.082932 18.690907 0.855469
v -3.197021 15.385899 1.729820
v -3.759476 11.539997 0.855469
v 0.000000 13.063122 1.729820
vt 0.112006 0.474689
vt 0.112029 0.474686
vt 0.112029 0.473707
vt 0.112005 0.473707
vt 0.112045 0.474694
vt 0.112046 0.473710
vt 0.112038 0.474705
vt 0.112038 0.473714
vt 0.112014 0.474707
vt 0.112014 0.473714
vt 0.111998 0.474699
vt 0.111997 0.473711
vt 0.112021 0.474697
vt 0.112021 0.473710
vt 0.112006 0.474639
vt 0.112029 0.474637
vt 0.112045 0.474645
vt 0.112038 0.474655
vt 0.112014 0.474657
vt 0.111998 0.474649
vt 0.112005 0.473778
vt 0.111997 0.473782
vt 0.112014 0.473785
vt 0.112038 0.473785
vt 0.112046 0.473780
vt 0.112029 0.473777
vt 0.112005 0.473834
vt 0.112029 0.473833
vt 0.112046 0.473836
vt 0.112038 0.473841
vt 0.112014 0.473842
vt 0.111997 0.473838
vt 0.112005 0.473789
vt 0.111997 0.473793
vt 0.112014 0.473796
vt 0.112038 0.473795
vt 0.112046 0.473791
vt 0.112029 0.473788
vt 0.112005 0.473825
vt 0.112029 0.473824
vt 0.112046 0.473827
vt 0.112038 0.473832
vt 0.112014 0.473833
vt 0.111997 0.473829
vt 0.112006 0.474629
vt 0.112029 0.474627
vt 0.112045 0.474635
vt 0.112038 0.474645
vt 0.112014 0.474647
vt 0.111998 0.474639
vt 0.112006 0.474679
vt 0.112029 0.474677
vt 0.112045 0.474685
vt 0.112038 0.474695
vt 0.112014 0.474697
vt 0.111998 0.474689
vt 0.112005 0.473869
vt 0.111997 0.473874
vt 0.112014 0.473877
vt 0.112038 0.473877
vt 0.112046 0.473872
vt 0.112029 0.473868
vt 0.112006 0.474580
vt 0.112029 0.474578
vt 0.112045 0.474585
vt 0.112038 0.474594
vt 0.112014 0.474596
vt 0.111998 0.474589
vt 0.102848 0.355254
vt 0.102876 0.355254
vt 0.102871 0.354266
vt 0.102844 0.354267
vt 0.102889 0.355254
vt 0.102884 0.354260
vt 0.102875 0.355254
vt 0.102870 0.354254
vt 0.102846 0.355254
vt 0.102843 0.354254
vt 0.102833 0.355254
vt 0.102830 0.354261
vt 0.219704 0.473439
vt 0.219704 0.473120
vt 0.219704 0.473141
vt 0.219704 0.473453
vt 0.219704 0.472858
vt 0.219704 0.472865
vt 0.219704 0.472814
vt 0.219704 0.472827
vt 0.219704 0.472494
vt 0.219704 0.472492
vt 0.219704 0.472811
vt 0.219704 0.472823
vt 0.219704 0.472847
vt 0.219704 0.472853
vt 0.219704 0.473111
vt 0.219704 0.473131
vt 0.219704 0.473424
vt 0.219704 0.473437
vt 0.219704 0.473302
vt 0.219704 0.473327
vt 0.219704 0.448126
vt 0.219704 0.447816
vt 0.219704 0.447911
vt 0.219704 0.448177
vt 0.219704 0.447631
vt 0.219704 0.447676
vt 0.219704 0.447510
vt 0.219704 0.447594
vt 0.219704 0.447212
vt 0.219704 0.447177
vt 0.219704 0.447453
vt 0.219704 0.447532
vt 0.219704 0.447450
vt 0.219704 0.447488
vt 0.219704 0.447714
vt 0.219704 0.447800
vt 0.219704 0.447994
vt 0.219704 0.448040
vt 0.219704 0.447930
vt 0.219704 0.448024
vn 0.000000 -0.181446 -0.983401
vn 0.000000 -0.181449 -0.983400
vn 0.000000 0.178608 -0.983920
vn 0.000000 0.178605 -0.983921
vn -0.829378 -0.200166 -0.521599
vn -0.830878 -0.191286 -0.522543
vn -0.831357 0.188361 -0.522843
vn -0.830062 0.196171 -0.522029
vn -0.830883 -0.191285 0.522536
vn -0.829382 -0.200166 0.521592
vn -0.830066 0.196171 0.522022
vn -0.831362 0.188360 0.522837
vn 0.000000 -0.181439 0.983402
vn 0.000000 -0.181436 0.983403
vn 0.000000 0.178596 0.983923
vn 0.000000 0.178598 0.983922
vn 0.829380 -0.200175 0.521592
vn 0.830881 -0.191291 0.522536
vn 0.831360 0.188366 0.522837
vn 0.830064 0.196180 0.522022
vn 0.830880 -0.191292 -0.522537
vn 0.829380 -0.200174 -0.521593
vn 0.830064 0.196179 -0.522023
vn 0.831359 0.188367 -0.522838
vn 0.000000 -1.000000 0.000000
vn 0.000000 -1.000000 0.000000
vn 0.000000 -1.000000 0.000000
vn 0.000000 -1.000000 0.000000
vn 0.000000 -1.000000 0.000000
vn 0.000000 -1.000000 0.000000
vn 0.000000 -1.000000 0.000000
vn 0.000000 -1.000000 0.000000
vn 0.000000 -1.000000 0.000000
vn 0.000000 -1.000000 0.000000
vn 0.000000 -1.000000 0.000000
vn 0.000000 -1.000000 0.000000
vn 0.000000 -1.000000 0.000000
vn 0.000000 -1.000000 0.000000
vn 0.000000 -1.000000 0.000000
vn 0.000000 -1.000000 0.000000
vn 0.000000 -1.000000 0.000000
vn 0.000000 -1.000000 0.000000
vn 0.000000 1.000000 0.000000
vn 0.000000 1.000000 0.000000
vn 0.000000 1.000000 0.000000
vn 0.000000 1.000000 0.000000
vn 0.000000 1.000000 0.000000
vn 0.000000 1.000000 0.000000
vn 0.000000 1.000000 0.000000
vn 0.000000 1.000000 0.000000
vn 0.000000 1.000000 0.000000
vn 0.000000 1.000000 0.000000
vn 0.000000 1.000000 0.000000
vn 0.000000 1.000000 0.000000
vn 0.000000 1.000000 0.000000
vn 0.000000 1.000000 0.000000
vn 0.000000 1.000000 0.000000
vn 0.000000 1.000000 0.000000
vn 0.000000 1.000000 0.000000
vn 0.000000 1.000000 0.000000
vn 0.000000 -0.173909 -0.984762
vn 0.000000 -0.173912 -0.984761
vn 0.000000 0.172872 -0.984944
vn 0.000000 0.172870 -0.984945
vn -0.830893 -0.191201 -0.522551
vn -0.832151 -0.183404 -0.523343
vn -0.832319 0.182337 -0.523448
vn -0.831128 0.189771 -0.522699
vn -0.832156 -0.183403 0.523336
vn -0.830897 -0.191201 0.522544
vn -0.831132 0.189771 0.522692
vn -0.832323 0.182336 0.523442
vn 0.000000 -0.173902 0.984763
vn 0.000000 -0.173900 0.984763
vn 0.000000 0.172861 0.984946
vn 0.000000 0.172863 0.984946
vn 0.830895 -0.191209 0.522544
vn 0.832154 -0.183408 0.523336
vn 0.832322 0.182341 0.523442
vn 0.831130 0.189779 0.522692
vn 0.832153 -0.183410 -0.523337
vn 0.830894 -0.191208 -0.522546
vn 0.831129 0.189779 -0.522694
vn 0.832321 0.182343 -0.523443
vn 0.834546 0.167594 -0.524829
vn 0.835237 0.162717 -0.525264
vn 0.846520 0.000000 -0.532357
vn 0.846520 0.000000 -0.532357
vn 0.835243 0.162713 0.525256
vn 0.834552 0.167590 0.524821
vn 0.846527 0.000000 0.532347
vn 0.846527 0.000000 0.532347
vn 0.000000 0.156829 0.987626
vn 0.000000 0.156831 0.987626
vn 0.000000 0.000000 1.000000
vn 0.000000 0.000000 1.000000
vn -0.834557 0.167585 0.524815
vn -0.835248 0.162710 0.525249
vn -0.846532 0.000000 0.532339
vn -0.846532 0.000000 0.532339
vn -0.835237 0.162714 -0.525265
vn -0.834546 0.167589 -0.524830
vn -0.846520 0.000000 -0.532357
vn -0.846520 0.000000 -0.532357
vn 0.000000 0.156839 -0.987624
vn 0.000000 0.156838 -0.987624
vn 0.000000 0.000000 -1.000000
vn 0.000000 0.000000 -1.000000
vn 0.000000 0.000000 -1.000000
vn 0.000000 0.000000 -1.000000
vn 0.000000 0.000000 -1.000000
vn 0.000000 0.000000 -1.000000
vn -0.846520 0.000000 -0.532357
vn -0.846520 0.000000 -0.532357
vn -0.846520 0.000000 -0.532357
vn -0.846520 0.000000 -0.532357
vn -0.846532 0.000000 0.532339
vn -0.846532 0.000000 0.532339
vn -0.846532 0.000000 0.532339
vn -0.846532 0.000000 0.532339
vn 0.000000 0.000000 1.000000
vn 0.000000 0.000000 1.000000
vn 0.000000 0.000000 1.000000
vn 0.000000 0.000000 1.000000
vn 0.846527 0.000000 0.532347
vn 0.846527 0.000000 0.532347
vn 0.846527 0.000000 0.532347
vn 0.846527 0.000000 0.532347
vn 0.846520 0.000000 -0.532357
vn 0.846520 0.000000 -0.532357
vn 0.846520 0.000000 -0.532357
vn 0.846520 0.000000 -0.532357
vn 0.831359 0.188367 -0.522838
vn 0.830064 0.196179 -0.522023
vn 0.835237 0.162717 -0.525264
vn 0.834546 0.167594 -0.524829
vn 0.830064 0.196180 0.522022
vn 0.831360 0.188366 0.522837
vn 0.834552 0.167590 0.524821
vn 0.835243 0.162713 0.525256
vn 0.000000 0.178598 0.983922
vn 0.000000 0.178596 0.983923
vn 0.000000 0.156831 0.987626
vn 0.000000 0.156829 0.987626
vn -0.831362 0.188360 0.522837
vn -0.830066 0.196171 0.522022
vn -0.835248 0.162710 0.525249
vn -0.834557 0.167585 0.524815
vn -0.830062 0.196171 -0.522029
vn -0.831357 0.188361 -0.522843
vn -0.834546 0.167589 -0.524830
vn -0.835237 0.162714 -0.525265
vn 0.000000 0.178605 -0.983921
vn 0.000000 0.178608 -0.983920
vn 0.000000 0.156838 -0.987624
vn 0.000000 0.156839 -0.987624
vn 0.000000 -0.107445 -0.994211
vn 0.000000 -0.107444 -0.994211
vn 0.000000 -0.181449 -0.983400
vn 0.000000 -0.181446 -0.983401
vn -0.841291 -0.110967 -0.529070
vn -0.840905 -0.114980 -0.528828
vn -0.830878 -0.191286 -0.522543
vn -0.829378 -0.200166 -0.521599
vn -0.840916 -0.114977 0.528811
vn -0.841302 -0.110964 0.529054
vn -0.829382 -0.200166 0.521592
vn -0.830883 -0.191285 0.522536
vn 0.000000 -0.107438 0.994212
vn 0.000000 -0.107440 0.994212
vn 0.000000 -0.181436 0.983403
vn 0.000000 -0.181439 0.983402
vn 0.841297 -0.110966 0.529061
vn 0.840911 -0.114981 0.528818
vn 0.830881 -0.191291 0.522536
vn 0.829380 -0.200175 0.521592
vn 0.840905 -0.114983 -0.528827
vn 0.841291 -0.110969 -0.529070
vn 0.829380 -0.200174 -0.521593
vn 0.830880 -0.191292 -0.522537
vn 0.000000 0.172870 -0.984945
vn 0.000000 0.172872 -0.984944
vn 0.000000 0.093992 -0.995573
vn 0.000000 0.093993 -0.995573
vn -0.831128 0.189771 -0.522699
vn -0.832319 0.182337 -0.523448
vn -0.842223 0.100622 -0.529657
vn -0.842502 0.097311 -0.529832
vn -0.832323 0.182336 0.523442
vn -0.831132 0.189771 0.522692
vn -0.842512 0.097308 0.529815
vn -0.842233 0.100619 0.529640
vn 0.000000 0.172863 0.984946
vn 0.000000 0.172861 0.984946
vn 0.000000 0.093988 0.995573
vn 0.000000 0.093987 0.995573
vn 0.831130 0.189779 0.522692
vn 0.832322 0.182341 0.523442
vn 0.842229 0.100622 0.529647
vn 0.842508 0.097310 0.529822
vn 0.832321 0.182343 -0.523443
vn 0.831129 0.189779 -0.522694
vn 0.842502 0.097313 -0.529831
vn 0.842223 0.100625 -0.529656
vn 0.000000 -0.538438 -0.842665
vn 0.000000 -0.538438 -0.842665
vn 0.000000 -0.173912 -0.984761
vn 0.000000 -0.173909 -0.984762
vn -0.699880 -0.562525 -0.440152
vn -0.699880 -0.562525 -0.440152
vn -0.832151 -0.183404 -0.523343
vn -0.830893 -0.191201 -0.522551
vn -0.699889 -0.562520 0.440144
vn -0.699889 -0.562520 0.440144
vn -0.830897 -0.191201 0.522544
vn -0.832156 -0.183403 0.523336
vn 0.000000 -0.538416 0.842679
vn 0.000000 -0.538416 0.842679
vn 0.000000 -0.173900 0.984763
vn 0.000000 -0.173902 0.984763
vn 0.699880 -0.562532 0.440142
vn 0.699880 -0.562532 0.440142
vn 0.832154 -0.183408 0.523336
vn 0.830895 -0.191209 0.522544
vn 0.699875 -0.562537 -0.440144
vn 0.699875 -0.562537 -0.440144
vn 0.830894 -0.191208 -0.522546
vn 0.832153 -0.183410 -0.523337
vn 0.846520 0.000000 -0.532357
vn 0.846520 0.000000 -0.532357
vn 0.841291 -0.110969 -0.529070
vn 0.840905 -0.114983 -0.528827
vn 0.846527 0.000000 0.532347
vn 0.846527 0.000000 0.532347
vn 0.840911 -0.114981 0.528818
vn 0.841297 -0.110966 0.529061
vn 0.000000 0.000000 1.000000
vn 0.000000 0.000000 1.000000
vn 0.000000 -0.107440 0.994212
vn 0.000000 -0.107438 0.994212
vn -0.846532 0.000000 0.532339
vn -0.846532 0.000000 0.532339
vn -0.841302 -0.110964 0.529054
vn -0.840916 -0.114977 0.528811
vn -0.846520 0.000000 -0.532357
vn -0.846520 0.000000 -0.532357
vn -0.840905 -0.114980 -0.528828
vn -0.841291 -0.110967 -0.529070
vn 0.000000 0.000000 -1.000000
vn 0.000000 0.000000 -1.000000
vn 0.000000 -0.107444 -0.994211
vn 0.000000 -0.107445 -0.994211
vn 0.000000 0.093993 -0.995573
vn 0.000000 0.093992 -0.995573
vn 0.000000 0.000000 -1.000000
vn 0.000000 0.000000 -1.000000
vn -0.842502 0.097311 -0.529832
vn -0.842223 0.100622 -0.529657
vn -0.846520 0.000000 -0.532357
vn -0.846520 0.000000 -0.532357
vn -0.842233 0.100619 0.529640
vn -0.842512 0.097308 0.529815
vn -0.846532 0.000000 0.532339
vn -0.846532 0.000000 0.532339
vn 0.000000 0.093987 0.995573
vn 0.000000 0.093988 0.995573
vn 0.000000 0.000000 1.000000
vn 0.000000 0.000000 1.000000
vn 0.842508 0.097310 0.529822
vn 0.842229 0.100622 0.529647
vn 0.846527 0.000000 0.532347
vn 0.846527 0.000000 0.532347
vn 0.842223 0.100625 -0.529656
vn 0.842502 0.097313 -0.529831
vn 0.846520 0.000000 -0.532357
vn 0.846520 0.000000 -0.532357
vn 0.989475 0.144701 0.000000
vn 0.989476 0.144701 0.000000
vn 0.989476 0.144701 0.000000
vn 0.989475 0.144701 0.000000
vn 0.753253 -0.657731 0.000000
vn 0.753253 -0.657731 0.000000
vn 0.753253 -0.657731 0.000000
vn 0.753253 -0.657731 0.000000
vn 0.109710 0.993964 0.000000
vn 0.109710 0.993964 0.000000
vn 0.109710 0.993964 0.000000
vn 0.109710 0.993964 0.000000
vn 0.895078 0.445910 0.000000
vn 0.895078 0.445910 0.000000
vn 0.895078 0.445910 0.000000
vn 0.895078 0.445910 0.000000
vn -0.895078 0.445910 0.000000
vn -0.895078 0.445910 0.000000
vn -0.895078 0.445910 0.000000
vn -0.895078 0.445910 0.000000
vn -0.109710 0.993964 0.000000
vn -0.109710 0.993964 0.000000
vn -0.109710 0.993964 0.000000
vn -0.109710 0.993964 0.000000
vn -0.753251 -0.657733 0.000000
vn -0.753251 -0.657733 0.000000
vn -0.753251 -0.657733 0.000000
vn -0.753251 -0.657733 0.000000
vn -0.989474 0.144708 0.000000
vn -0.989474 0.144708 0.000000
vn -0.989474 0.144708 0.000000
vn -0.989474 0.144708 0.000000
vn 0.375496 -0.926824 0.000000
vn 0.375496 -0.926824 0.000000
vn 0.375496 -0.926824 0.000000
vn 0.375496 -0.926824 0.000000
vn -0.375497 -0.926823 0.000000
vn -0.375497 -0.926823 0.000000
vn -0.375497 -0.926823 0.000000
vn -0.375497 -0.926823 0.000000
vn -0.000000 -0.044393 -0.999014
vn 0.042933 -0.014872 -0.998967
vn 0.144716 -0.199185 -0.969218
vn -0.042933 -0.014872 0.998967
vn -0.027908 0.037437 0.998909
vn -0.215088 0.069886 0.974091
vn -0.027908 0.037437 0.998909
vn 0.027908 0.037437 0.998909
vn 0.000000 0.215282 0.976552
vn 0.027908 0.037437 0.998909
vn 0.042933 -0.014872 0.998967
vn 0.215088 0.069887 0.974091
vn -0.000000 -0.044393 0.999014
vn 0.144716 -0.199185 0.969218
vn 0.042933 -0.014872 0.998967
vn -0.000000 -0.044393 0.999014
vn -0.042933 -0.014872 0.998967
vn -0.144716 -0.199184 0.969218
vn -0.000000 -0.044393 0.999014
vn 0.042933 -0.014872 0.998967
vn 0.027908 0.037437 0.998909
vn -0.027908 0.037437 0.998909
vn -0.042933 -0.014872 0.998967
vn 0.042933 -0.014872 -0.998967
vn 0.027908 0.037437 -0.998909
vn 0.215088 0.069887 -0.974091
vn -0.027908 0.037437 -0.998909
vn -0.042933 -0.014872 -0.998967
vn -0.215088 0.069886 -0.974091
vn -0.144716 -0.199184 -0.969218
vn -0.042933 -0.014872 -0.998967
vn -0.000000 -0.044393 -0.999014
vn -0.000000 -0.044393 -0.999014
vn -0.042933 -0.014872 -0.998967
vn -0.027908 0.037437 -0.998909
vn 0.027908 0.037437 -0.998909
vn 0.042933 -0.014872 -0.998967
vn 0.027908 0.037437 -0.998909
vn -0.027908 0.037437 -0.998909
vn 0.000000 0.215282 -0.976552
s off
f 39/39/1 40/40/2 38/38/3 33/33/4
f 40/40/5 41/41/6 37/37/7 38/38/8
f 41/41/9 42/42/10 36/36/11 37/37/12
f 42/42/13 43/43/14 35/35/15 36/36/16
f 43/43/17 44/44/18 34/34/19 35/35/20
f 44/44/21 39/39/22 33/33/23 34/34/24
f 2/2/25 1/1/26 13/13/27
f 3/5/28 2/2/29 13/13/30
f 4/7/31 3/5/32 13/13/33
f 5/9/34 4/7/35 13/13/36
f 6/11/37 5/9/38 13/13/39
f 1/1/40 6/11/41 13/13/42
f 7/4/43 8/3/44 14/14/45
f 8/3/46 9/6/47 14/14/48
f 9/6/49 10/8/50 14/14/51
f 10/8/52 11/10/53 14/14/54
f 11/10/55 12/12/56 14/14/57
f 12/12/58 7/4/59 14/14/60
f 51/51/61 52/52/62 16/16/63 15/15/64
f 52/52/65 53/53/66 17/17/67 16/16/68
f 53/53/69 54/54/70 18/18/71 17/17/72
f 54/54/73 55/55/74 19/19/75 18/18/76
f 55/55/77 56/56/78 20/20/79 19/19/80
f 56/56/81 51/51/82 15/15/83 20/20/84
f 22/22/85 21/21/86 7/4/87 12/12/88
f 23/23/89 22/22/90 12/12/91 11/10/92
f 24/24/93 23/23/94 11/10/95 10/8/96
f 25/25/97 24/24/98 10/8/99 9/6/100
f 26/26/101 25/25/102 9/6/103 8/3/104
f 21/21/105 26/26/106 8/3/107 7/4/108
f 63/69/109 64/70/110 62/71/111 57/72/112
f 64/70/113 65/73/114 61/74/115 62/71/116
f 65/73/117 66/75/118 60/76/119 61/74/120
f 66/75/121 67/77/122 59/78/123 60/76/124
f 67/77/125 68/79/126 58/80/127 59/78/128
f 68/79/129 63/69/130 57/72/131 58/80/132
f 34/34/133 33/33/134 21/21/135 22/22/136
f 35/35/137 34/34/138 22/22/139 23/23/140
f 36/36/141 35/35/142 23/23/143 24/24/144
f 37/37/145 36/36/146 24/24/147 25/25/148
f 38/38/149 37/37/150 25/25/151 26/26/152
f 33/33/153 38/38/154 26/26/155 21/21/156
f 27/27/157 28/28/158 40/40/159 39/39/160
f 28/28/161 29/29/162 41/41/163 40/40/164
f 29/29/165 30/30/166 42/42/167 41/41/168
f 30/30/169 31/31/170 43/43/171 42/42/172
f 31/31/173 32/32/174 44/44/175 43/43/176
f 32/32/177 27/27/178 39/39/179 44/44/180
f 15/15/181 16/16/182 46/46/183 45/45/184
f 16/16/185 17/17/186 47/47/187 46/46/188
f 17/17/189 18/18/190 48/48/191 47/47/192
f 18/18/193 19/19/194 49/49/195 48/48/196
f 19/19/197 20/20/198 50/50/199 49/49/200
f 20/20/201 15/15/202 45/45/203 50/50/204
f 1/1/205 2/2/206 52/52/207 51/51/208
f 2/2/209 3/5/210 53/53/211 52/52/212
f 3/5/213 4/7/214 54/54/215 53/53/216
f 4/7/217 5/9/218 55/55/219 54/54/220
f 5/9/221 6/11/222 56/56/223 55/55/224
f 6/11/225 1/1/226 51/51/227 56/56/228
f 58/58/229 57/57/230 27/27/231 32/32/232
f 59/59/233 58/58/234 32/32/235 31/31/236
f 60/60/237 59/59/238 31/31/239 30/30/240
f 61/61/241 60/60/242 30/30/243 29/29/244
f 62/62/245 61/61/246 29/29/247 28/28/248
f 57/57/249 62/62/250 28/28/251 27/27/252
f 45/45/253 46/46/254 64/64/255 63/63/256
f 46/46/257 47/47/258 65/65/259 64/64/260
f 47/47/261 48/48/262 66/66/263 65/65/264
f 48/48/265 49/49/266 67/67/267 66/66/268
f 49/49/269 50/50/270 68/68/271 67/67/272
f 50/50/273 45/45/274 63/63/275 68/68/276
f 69/101/277 70/102/278 80/103/279 79/104/280
f 70/102/281 71/105/282 81/106/283 80/103/284
f 71/105/285 72/107/286 82/108/287 81/106/288
f 83/109/289 82/108/290 72/107/291 73/110/292
f 74/111/293 84/112/294 83/109/295 73/110/296
f 74/111/297 75/113/298 85/114/299 84/112/300
f 75/113/301 76/115/302 86/116/303 85/114/304
f 76/115/305 77/117/306 87/118/307 86/116/308
f 77/117/309 78/119/310 88/120/311 87/118/312
f 78/119/313 69/101/314 79/104/315 88/120/316
f 78/99/317 70/82/318 69/81/319
f 86/96/320 84/92/321 85/94/322
f 84/92/323 82/88/324 83/89/325
f 82/88/326 80/83/327 81/86/328
f 88/100/329 79/84/330 80/83/331
f 88/100/332 86/96/333 87/98/334
f 88/100/335 80/83/336 82/88/337 84/92/338 86/96/339
f 70/82/340 72/87/341 71/85/342
f 74/91/343 76/95/344 75/93/345
f 77/97/346 76/95/347 78/99/348
f 78/99/349 76/95/350 74/91/351 72/87/352 70/82/353
f 72/87/354 74/91/355 73/90/356
