# This file uses centimeters as units for non-parametric coordinates.

v 4.668331 13.319077 -4.362419
v 4.632227 15.578304 -4.665554
v 5.977325 13.240860 -4.372948
v 5.942694 15.583492 -4.683849
v 4.704550 14.632980 5.009686
v 4.751638 16.562988 3.806255
v 6.022064 14.402210 4.878136
v 6.073698 16.407883 3.638371
v 4.722710 16.912834 7.510170
v 4.676844 18.497505 5.407436
v 6.077719 16.871674 7.391060
v 6.033020 18.475216 5.217808
v 4.284355 17.502274 13.610636
v 4.049059 19.133224 14.192696
v 5.636206 17.564510 13.512522
v 5.398027 19.233456 14.077141
v 3.654785 20.676941 4.392860
v 2.619789 17.520359 4.314796
v 7.681356 20.700577 4.374710
v 8.126526 17.551109 4.260555
v 4.183878 21.879314 28.048908
v 3.482752 18.259132 29.368914
v 8.995594 21.934731 28.348917
v 9.630802 18.322296 29.635378
v 4.020075 21.878017 14.650578
v 3.215582 18.774452 15.537750
v 9.165089 18.819759 15.704926
v 8.588715 21.916725 14.852087
v 8.921267 19.480789 30.537868
v 8.481756 21.557281 29.777296
v 4.492723 21.507965 29.544035
v 4.007591 19.426113 30.324440
v 7.152863 20.155979 3.686909
v 7.497410 18.191593 3.651615
v 3.916988 20.157593 3.714725
v 3.115932 18.187702 3.707375
v -0.129101 -0.384644 -2.647980
v -0.029160 2.103466 -1.659531
v 0.099949 2.488098 0.988449
v 0.129107 0.384632 2.647987
v 0.029160 -2.103477 1.659527
v -0.099945 -2.488106 -0.988457
v 2.038538 -0.441704 -2.765728
v 2.138483 2.046402 -1.777275
v 2.267590 2.431046 0.870708
v 2.296745 0.327572 2.530235
v 2.196800 -2.160542 1.541779
v 2.067690 -2.545174 -1.106201
v 0.000000 0.000000 0.000000
v 2.093561 -0.277760 -1.637100
v 2.150911 1.149860 -1.069946
v 2.224993 1.370560 0.449406
v 2.241722 0.163631 1.401611
v 2.184372 -1.263996 0.834450
v 2.110294 -1.484692 -0.684898
v 1.863346 -0.243279 -1.430157
v 1.913368 1.002121 -0.935394
v 1.927969 -0.050758 -0.104729
v 1.977997 1.194656 0.390038
v 1.992592 0.141773 1.220703
v 1.942566 -1.103634 0.725937
v 1.877941 -1.296165 -0.599491
v 5.504431 8.476601 -2.397530
v 5.677811 8.931068 0.241634
v 6.810020 8.285755 0.131294
v 6.649105 7.831276 -2.507866
v 5.504427 17.225044 -3.569286
v 5.677809 17.679512 -0.930122
v 6.810020 17.563797 -1.040459
v 6.649103 17.109295 -3.679619
vt 0.111765 0.331330
vt 0.111769 0.331644
vt 0.111651 0.331703
vt 0.111640 0.331369
vt 0.111769 0.331644
vt 0.111769 0.331644
vt 0.111651 0.331703
vt 0.111651 0.331703
vt 0.111765 0.331330
vt 0.111765 0.331330
vt 0.111640 0.331369
vt 0.111640 0.331369
vt 0.111769 0.331644
vt 0.111651 0.331703
vt 0.111765 0.331330
vt 0.111640 0.331369
vt 0.081240 0.275865
vt 0.081324 0.276117
vt 0.081494 0.276497
vt 0.081405 0.276159
vt 0.080832 0.276154
vt 0.080954 0.276545
vt 0.080984 0.276197
vt 0.080864 0.275894
vt 0.081084 0.275800
vt 0.081025 0.275642
vt 0.080779 0.275657
vt 0.080753 0.275819
vt 0.081415 0.276260
vt 0.081474 0.276491
vt 0.081038 0.276529
vt 0.081062 0.276291
vt 0.081058 0.275619
vt 0.081133 0.275822
vt 0.080715 0.275845
vt 0.080750 0.275635
vt 0.111187 0.328405
vt 0.111284 0.328072
vt 0.111028 0.328155
vt 0.110950 0.328493
vt 0.111284 0.328072
vt 0.111626 0.328133
vt 0.111351 0.328230
vt 0.111028 0.328155
vt 0.111626 0.328133
vt 0.111861 0.328620
vt 0.111590 0.328744
vt 0.111351 0.328230
vt 0.111692 0.328947
vt 0.111442 0.329072
vt 0.111367 0.328802
vt 0.111132 0.328907
vt 0.111484 0.328500
vt 0.078614 0.280700
vt 0.078804 0.280308
vt 0.079103 0.280771
vt 0.079314 0.280372
vt 0.079615 0.280847
vt 0.079395 0.281225
vt 0.078905 0.281144
vt 0.111028 0.328155
vt 0.110950 0.328493
vt 0.111351 0.328230
vt 0.111590 0.328744
vt 0.111442 0.329072
vt 0.111132 0.328907
vt 0.111028 0.328155
vt 0.110950 0.328493
vt 0.111351 0.328230
vt 0.111590 0.328744
vt 0.111442 0.329072
vt 0.111132 0.328907
vt 0.111626 0.328133
vt 0.111284 0.328072
vt 0.111351 0.328230
vt 0.111028 0.328155
vn 0.115028 -0.339470 0.933557
vn 0.115028 -0.339470 0.933557
vn 0.115028 -0.339470 0.933557
vn 0.115028 -0.339470 0.933557
vn -0.127237 -0.990210 0.057395
vn -0.127237 -0.990210 0.057395
vn -0.127237 -0.990210 0.057395
vn -0.127237 -0.990210 0.057395
vn -0.999956 0.005229 0.007858
vn -0.999955 0.005229 0.007858
vn -0.999956 0.005229 0.007858
vn -0.999955 0.005229 0.007858
vn 0.999936 -0.006769 -0.009078
vn 0.999936 -0.006769 -0.009078
vn 0.999936 -0.006769 -0.009078
vn 0.999936 -0.006769 -0.009078
vn 0.061832 0.997861 -0.021216
vn 0.061832 0.997861 -0.021216
vn 0.061832 0.997861 -0.021216
vn 0.061832 0.997861 -0.021216
vn -0.011076 -0.755002 0.655628
vn -0.011076 -0.755002 0.655628
vn -0.011076 -0.755002 0.655628
vn -0.011076 -0.755002 0.655628
vn -0.999967 -0.005644 -0.005797
vn -0.999967 -0.005644 -0.005797
vn -0.999967 -0.005644 -0.005797
vn -0.999967 -0.005644 -0.005797
vn 0.999997 -0.002307 -0.000601
vn 0.999997 -0.002307 -0.000601
vn 0.999997 -0.002307 -0.000601
vn 0.999997 -0.002307 -0.000601
vn -0.075914 0.652177 -0.754256
vn -0.075914 0.652177 -0.754256
vn -0.075914 0.652177 -0.754256
vn -0.075914 0.652177 -0.754256
vn -0.993561 -0.101871 -0.049584
vn -0.993561 -0.101871 -0.049584
vn -0.993561 -0.101871 -0.049584
vn -0.993561 -0.101871 -0.049584
vn 0.018470 -0.995137 0.096757
vn 0.018470 -0.995137 0.096757
vn 0.018470 -0.995137 0.096757
vn 0.018470 -0.995137 0.096757
vn 0.993663 0.101416 0.048461
vn 0.993663 0.101416 0.048461
vn 0.993663 0.101416 0.048461
vn 0.993663 0.101416 0.048461
vn -0.043149 0.996278 -0.074620
vn -0.043149 0.996278 -0.074620
vn -0.043149 0.996278 -0.074620
vn -0.043149 0.996278 -0.074620
vn -0.014597 -0.132467 -0.991080
vn -0.014597 -0.132467 -0.991080
vn -0.014597 -0.132467 -0.991080
vn -0.014597 -0.132467 -0.991080
vn -0.968918 0.245652 0.029195
vn -0.968918 0.245652 0.029195
vn -0.968918 0.245652 0.029195
vn -0.968918 0.245652 0.029195
vn -0.088252 -0.994708 -0.052610
vn -0.088252 -0.994708 -0.052610
vn 0.133299 -0.989344 -0.058567
vn 0.133299 -0.989344 -0.058567
vn 0.313892 0.949375 -0.012617
vn 0.313892 0.949375 -0.012617
vn -0.343508 0.939124 0.006963
vn -0.343508 0.939124 0.006963
vn 0.983944 0.174117 -0.039206
vn 0.983944 0.174117 -0.039206
vn 0.983944 0.174117 -0.039206
vn 0.983944 0.174117 -0.039206
vn -0.463182 0.126239 -0.877227
vn -0.463182 0.126239 -0.877227
vn 0.244659 0.031707 -0.969091
vn 0.244659 0.031707 -0.969091
vn -0.526472 0.387131 0.756939
vn -0.526472 0.387131 0.756939
vn 0.351503 0.389273 0.851418
vn 0.351503 0.389273 0.851418
vn -0.952124 0.305702 0.002260
vn -0.952124 0.305702 0.002260
vn -0.952124 0.305703 0.002260
vn -0.952124 0.305703 0.002260
vn 0.151440 -0.984339 0.090241
vn 0.151440 -0.984339 0.090241
vn -0.119068 -0.987238 0.105750
vn -0.119068 -0.987238 0.105750
vn 0.983018 0.161570 -0.087008
vn 0.983018 0.161570 -0.087008
vn 0.983018 0.161570 -0.087008
vn 0.983018 0.161570 -0.087008
vn -0.365865 0.926590 -0.087023
vn -0.365865 0.926590 -0.087023
vn 0.383051 0.915861 -0.120295
vn 0.383051 0.915861 -0.120295
vn -0.529753 -0.577753 0.620937
vn 0.420712 -0.612308 0.669388
vn 0.420712 -0.612308 0.669388
vn -0.529753 -0.577753 0.620937
vn 0.383809 0.859612 0.337280
vn -0.491992 0.818356 0.297049
vn -0.491992 0.818356 0.297049
vn 0.383809 0.859612 0.337280
vn 0.880785 0.318030 0.350821
vn 0.880785 0.318030 0.350821
vn 0.880785 0.318030 0.350821
vn 0.880785 0.318030 0.350821
vn -0.926655 0.294688 0.233389
vn -0.926655 0.294688 0.233389
vn -0.926655 0.294688 0.233389
vn -0.926655 0.294688 0.233389
vn -0.477078 0.700205 -0.531140
vn 0.413053 0.645263 -0.642669
vn 0.413053 0.645263 -0.642669
vn -0.477078 0.700205 -0.531140
vn 0.178146 -0.971400 -0.156993
vn -0.193592 -0.965403 -0.174700
vn -0.193592 -0.965403 -0.174700
vn 0.178146 -0.971400 -0.156993
vn 0.778651 0.142061 -0.611163
vn 0.778651 0.142061 -0.611163
vn 0.778652 0.142061 -0.611163
vn 0.778651 0.142061 -0.611163
vn -0.818522 0.302362 -0.488466
vn -0.818522 0.302362 -0.488466
vn -0.818522 0.302362 -0.488466
vn -0.818522 0.302362 -0.488466
vn 0.044034 0.483163 -0.874422
vn 0.044034 0.483163 -0.874422
vn 0.044034 0.483163 -0.874422
vn 0.044034 0.483163 -0.874422
vn 0.183299 0.982864 -0.019495
vn 0.183299 0.982864 -0.019495
vn 0.183299 0.982864 -0.019495
vn 0.183299 0.982864 -0.019495
vn 0.139265 0.499700 0.854930
vn 0.139265 0.499700 0.854930
vn 0.139265 0.499700 0.854930
vn 0.139265 0.499700 0.854930
vn -0.044033 -0.483164 0.874422
vn -0.044033 -0.483164 0.874422
vn -0.044033 -0.483164 0.874422
vn -0.044033 -0.483164 0.874422
vn -0.183302 -0.982863 0.019492
vn -0.183302 -0.982863 0.019492
vn -0.183302 -0.982863 0.019492
vn -0.183302 -0.982863 0.019492
vn -0.139267 -0.499701 -0.854929
vn -0.139267 -0.499701 -0.854929
vn -0.139267 -0.499701 -0.854929
vn -0.139267 -0.499701 -0.854929
vn -0.981518 0.184085 0.052292
vn -0.981518 0.184086 0.052290
vn -0.981518 0.184087 0.052291
vn -0.981518 0.184087 0.052292
vn -0.981518 0.184085 0.052292
vn -0.981518 0.184087 0.052291
vn -0.981518 0.184088 0.052291
vn -0.981518 0.184087 0.052292
vn -0.981518 0.184087 0.052291
vn -0.981518 0.184088 0.052291
vn -0.981518 0.184088 0.052291
vn -0.981518 0.184087 0.052291
vn -0.981518 0.184088 0.052290
vn -0.981518 0.184088 0.052291
vn -0.981518 0.184087 0.052291
vn -0.981518 0.184086 0.052290
vn -0.981518 0.184088 0.052290
vn -0.981518 0.184087 0.052291
vn 0.981519 -0.184084 -0.052292
vn 0.981518 -0.184085 -0.052293
vn 0.981518 -0.184086 -0.052292
vn 0.981518 -0.184085 -0.052293
vn 0.981518 -0.184087 -0.052292
vn 0.981518 -0.184086 -0.052292
vn 0.981518 -0.184087 -0.052292
vn 0.981518 -0.184088 -0.052290
vn 0.981518 -0.184086 -0.052292
vn 0.981518 -0.184088 -0.052290
vn 0.981518 -0.184086 -0.052291
vn 0.981518 -0.184086 -0.052292
vn 0.981518 -0.184086 -0.052291
vn 0.981518 -0.184085 -0.052291
vn 0.981518 -0.184086 -0.052292
vn 0.981518 -0.184085 -0.052291
vn 0.981519 -0.184084 -0.052292
vn 0.981518 -0.184086 -0.052292
vn 0.981518 -0.184088 -0.052289
vn 0.981518 -0.184088 -0.052289
vn 0.981518 -0.184088 -0.052289
vn 0.981518 -0.184088 -0.052289
vn 0.981518 -0.184087 -0.052292
vn 0.981518 -0.184088 -0.052292
vn 0.981518 -0.184088 -0.052292
vn 0.981518 -0.184088 -0.052292
vn 0.981518 -0.184086 -0.052289
vn 0.981518 -0.184086 -0.052289
vn 0.981518 -0.184086 -0.052289
vn 0.981518 -0.184086 -0.052289
vn 0.981518 -0.184088 -0.052290
vn 0.981518 -0.184088 -0.052290
vn 0.981518 -0.184088 -0.052290
vn 0.981518 -0.184088 -0.052290
vn 0.981518 -0.184086 -0.052291
vn 0.981518 -0.184086 -0.052291
vn 0.981518 -0.184086 -0.052291
vn 0.981518 -0.184086 -0.052291
vn 0.981518 -0.184087 -0.052291
vn 0.981518 -0.184087 -0.052291
vn 0.981518 -0.184087 -0.052291
vn 0.981518 -0.184087 -0.052291
vn 0.496982 -0.505560 0.705279
vn 0.496982 -0.505560 0.705279
vn 0.496982 -0.505560 0.705279
vn 0.496982 -0.505560 0.705279
vn 0.380119 -0.924859 -0.012087
vn 0.380119 -0.924859 -0.012087
vn 0.380119 -0.924859 -0.012087
vn 0.380119 -0.924859 -0.012087
vn 0.417076 -0.519436 -0.745811
vn 0.417076 -0.519436 -0.745811
vn 0.417076 -0.519436 -0.745811
vn 0.417076 -0.519436 -0.745811
vn 0.570884 0.305278 -0.762166
vn 0.570884 0.305278 -0.762166
vn 0.570884 0.305278 -0.762166
vn 0.570884 0.305278 -0.762166
vn 0.687746 0.724568 -0.044804
vn 0.687746 0.724568 -0.044804
vn 0.687746 0.724568 -0.044804
vn 0.687746 0.724568 -0.044804
vn 0.650794 0.319151 0.688919
vn 0.650794 0.319151 0.688919
vn 0.650794 0.319151 0.688919
vn 0.650794 0.319151 0.688919
vn -0.757634 0.649934 -0.059803
vn -0.757634 0.649934 -0.059803
vn 0.183299 0.982864 -0.019495
vn 0.183299 0.982864 -0.019495
vn 0.080326 0.054182 0.995295
vn 0.080326 0.054182 0.995295
vn 0.183299 0.982864 -0.019495
vn 0.183299 0.982864 -0.019495
vn 0.791478 -0.608877 0.053218
vn 0.791478 -0.608877 0.053218
vn 0.183299 0.982864 -0.019495
vn 0.183299 0.982864 -0.019495
vn -0.080015 -0.054125 -0.995323
vn -0.080015 -0.054125 -0.995323
vn 0.183299 0.982864 -0.019495
vn 0.183299 0.982864 -0.019495
vn -0.997908 0.008583 0.064080
vn -0.997908 0.008583 0.064080
vn 0.183299 0.982864 -0.019495
vn 0.183299 0.982864 -0.019495
vn 0.138616 0.127674 0.982082
vn 0.138616 0.127674 0.982082
vn 0.183299 0.982864 -0.019495
vn 0.183299 0.982864 -0.019495
vn 0.998196 -0.007523 -0.059567
vn 0.998196 -0.007523 -0.059567
vn 0.183299 0.982864 -0.019495
vn 0.183299 0.982864 -0.019495
vn -0.137135 -0.127701 -0.982286
vn -0.137135 -0.127701 -0.982286
vn 0.183299 0.982864 -0.019495
vn 0.183299 0.982864 -0.019495
s off
f 14/1/1 13/2/2 15/3/3 16/4/4
f 5/5/5 1/6/6 3/7/7 7/8/8
f 2/9/9 1/6/10 5/5/11 6/10/12
f 3/7/13 4/11/14 8/12/15 7/8/16
f 8/12/17 4/11/18 2/9/19 6/10/20
f 9/13/21 5/5/22 7/8/23 11/14/24
f 6/10/25 5/5/26 9/13/27 10/15/28
f 7/8/29 8/12/30 12/16/31 11/14/32
f 10/15/33 12/16/34 8/12/35 6/10/36
f 10/15/37 9/13/38 13/2/39 14/1/40
f 9/13/41 11/14/42 15/3/43 13/2/44
f 11/14/45 12/16/46 16/4/47 15/3/48
f 12/16/49 10/15/50 14/1/51 16/4/52
f 1/6/53 2/9/54 4/11/55 3/7/56
f 25/17/57 26/18/58 22/19/59 21/20/60
f 22/19/61 26/18/62 27/21/63 24/22/64
f 23/23/65 28/24/66 25/17/67 21/20/68
f 27/21/69 28/24/70 23/23/71 24/22/72
f 36/25/73 35/26/74 33/27/75 34/28/76
f 31/29/77 32/30/78 29/31/79 30/32/80
f 17/33/81 18/34/82 26/18/83 25/17/84
f 20/35/85 27/21/86 26/18/87 18/34/88
f 20/35/89 19/36/90 28/24/91 27/21/92
f 17/33/93 25/17/94 28/24/95 19/36/96
f 22/19/97 24/22/98 29/31/99 32/30/100
f 23/23/101 21/20/102 31/29/103 30/32/104
f 24/22/105 23/23/106 30/32/107 29/31/108
f 21/20/109 22/19/110 32/30/111 31/29/112
f 17/33/113 19/36/114 33/27/115 35/26/116
f 20/35/117 18/34/118 36/25/119 34/28/120
f 19/36/121 20/35/122 34/28/123 33/27/124
f 18/34/125 17/33/126 35/26/127 36/25/128
f 37/37/129 38/38/130 44/39/131 43/40/132
f 67/41/133 68/42/134 69/43/135 70/44/136
f 39/45/137 40/46/138 46/47/139 45/48/140
f 40/46/141 41/49/142 47/50/143 46/47/144
f 41/49/145 42/51/146 48/52/147 47/50/148
f 42/51/149 37/37/150 43/40/151 48/52/152
f 38/38/153 37/37/154 49/53/155
f 39/45/156 38/38/157 49/53/158
f 40/46/159 39/45/160 49/53/161
f 41/49/162 40/46/163 49/53/164
f 42/51/165 41/49/166 49/53/167
f 37/37/168 42/51/169 49/53/170
f 56/54/171 57/55/172 58/56/173
f 57/55/174 59/57/175 58/56/176
f 59/57/177 60/58/178 58/56/179
f 60/58/180 61/59/181 58/56/182
f 61/59/183 62/60/184 58/56/185
f 62/60/186 56/54/187 58/56/188
f 43/40/189 44/39/190 51/61/191 50/62/192
f 44/39/193 45/48/194 52/63/195 51/61/196
f 45/48/197 46/47/198 53/64/199 52/63/200
f 46/47/201 47/50/202 54/65/203 53/64/204
f 47/50/205 48/52/206 55/66/207 54/65/208
f 48/52/209 43/40/210 50/62/211 55/66/212
f 50/62/213 51/61/214 57/67/215 56/68/216
f 51/61/217 52/63/218 59/69/219 57/67/220
f 52/63/221 53/64/222 60/70/223 59/69/224
f 53/64/225 54/65/226 61/71/227 60/70/228
f 54/65/229 55/66/230 62/72/231 61/71/232
f 55/66/233 50/62/234 56/68/235 62/72/236
f 38/38/237 39/45/238 64/73/239 63/74/240
f 39/45/241 45/48/242 65/75/243 64/73/244
f 45/48/245 44/39/246 66/76/247 65/75/248
f 44/39/249 38/38/250 63/74/251 66/76/252
f 63/74/253 64/73/254 68/42/255 67/41/256
f 64/73/257 65/75/258 69/43/259 68/42/260
f 65/75/261 66/76/262 70/44/263 69/43/264
f 66/76/265 63/74/266 67/41/267 70/44/268
