# This file uses centimeters as units for non-parametric coordinates.

v -4.668549 13.337555 -4.364750
v -4.632444 15.596783 -4.667885
v -5.977545 13.259338 -4.375278
v -5.942915 15.601971 -4.686180
v -4.704769 14.651459 5.007355
v -4.751856 16.581467 3.803925
v -6.022284 14.420689 4.875805
v -6.073915 16.426361 3.636040
v -4.722929 16.931313 7.507839
v -4.677061 18.515984 5.405106
v -6.077936 16.890152 7.388729
v -6.033239 18.493694 5.215477
v -4.284580 17.520752 13.608305
v -4.049276 19.151703 14.190365
v -5.636423 17.582985 13.510193
v -5.398247 19.251934 14.074812
v -3.655008 20.695419 4.390530
v -2.620008 17.538837 4.312466
v -7.681574 20.719055 4.372379
v -8.126745 17.569588 4.258224
v -4.184093 21.897789 28.046576
v -3.482965 18.277607 29.366583
v -8.995808 21.953205 28.346588
v -9.631018 18.340775 29.633045
v -4.020292 21.896492 14.648247
v -3.215797 18.792931 15.535419
v -9.165308 18.838234 15.702595
v -8.588932 21.935204 14.849758
v -8.921484 19.499268 30.535538
v -8.481966 21.575756 29.774967
v -4.492933 21.526440 29.541706
v -4.007807 19.444588 30.322109
v -7.153082 20.174454 3.684578
v -7.497629 18.210072 3.649284
v -3.917208 20.176071 3.712395
v -3.116152 18.206181 3.705044
v 0.128370 -0.386841 -2.647701
v 0.062227 2.102684 -1.659428
v -0.066153 2.489513 0.988277
v -0.128370 0.386822 2.647713
v -0.062220 -2.102699 1.659431
v 0.066151 -2.489525 -0.988270
v -2.039604 -0.406944 -2.770115
v -2.105753 2.082581 -1.781841
v -2.234125 2.469418 0.865864
v -2.296343 0.366718 2.525295
v -2.230192 -2.122803 1.537014
v -2.101820 -2.509632 -1.110687
v 0.000000 0.000000 0.000000
v -2.094315 -0.242065 -1.641605
v -2.132271 1.186367 -1.074558
v -2.205931 1.408333 0.444637
v -2.241631 0.201851 1.396786
v -2.203674 -1.226589 0.829731
v -2.130018 -1.448547 -0.689465
v -1.864008 -0.211510 -1.434170
v -1.897116 1.034599 -0.939491
v -1.928263 -0.017887 -0.108879
v -1.961374 1.228237 0.385799
v -1.992517 0.175747 1.216415
v -1.959410 -1.070377 0.721737
v -1.895155 -1.264004 -0.603550
v -6.612795 7.892456 -2.515591
v -5.467739 8.448620 -2.393993
v -6.772799 8.352238 0.122906
v -5.640142 8.908390 0.244499
v -6.612795 17.170483 -3.687344
v -5.467739 17.197044 -3.565746
v -6.772799 17.630283 -1.048855
v -5.640142 17.656815 -0.927254
vt 0.111765 0.331330
vt 0.111640 0.331369
vt 0.111651 0.331703
vt 0.111769 0.331644
vt 0.111769 0.331644
vt 0.111651 0.331703
vt 0.111651 0.331703
vt 0.111769 0.331644
vt 0.111765 0.331330
vt 0.111765 0.331330
vt 0.111640 0.331369
vt 0.111640 0.331369
vt 0.111769 0.331644
vt 0.111651 0.331703
vt 0.111765 0.331330
vt 0.111640 0.331369
vt 0.081240 0.275865
vt 0.081405 0.276159
vt 0.081494 0.276497
vt 0.081324 0.276117
vt 0.080954 0.276545
vt 0.080832 0.276154
vt 0.080864 0.275894
vt 0.080984 0.276197
vt 0.080753 0.275819
vt 0.080779 0.275657
vt 0.081025 0.275642
vt 0.081084 0.275800
vt 0.081062 0.276291
vt 0.081038 0.276529
vt 0.081474 0.276491
vt 0.081415 0.276260
vt 0.081058 0.275619
vt 0.081133 0.275822
vt 0.080715 0.275845
vt 0.080750 0.275635
vt 0.111187 0.328405
vt 0.110950 0.328493
vt 0.111028 0.328155
vt 0.111284 0.328072
vt 0.111284 0.328072
vt 0.111028 0.328155
vt 0.111351 0.328230
vt 0.111626 0.328133
vt 0.111626 0.328133
vt 0.111351 0.328230
vt 0.111590 0.328744
vt 0.111861 0.328620
vt 0.111442 0.329072
vt 0.111692 0.328947
vt 0.111132 0.328907
vt 0.111367 0.328802
vt 0.111484 0.328500
vt 0.078614 0.280700
vt 0.079103 0.280771
vt 0.078804 0.280308
vt 0.079314 0.280372
vt 0.079615 0.280847
vt 0.079395 0.281225
vt 0.078905 0.281144
vt 0.110950 0.328493
vt 0.111028 0.328155
vt 0.111351 0.328230
vt 0.111590 0.328744
vt 0.111442 0.329072
vt 0.111132 0.328907
vt 0.110950 0.328493
vt 0.111028 0.328155
vt 0.111351 0.328230
vt 0.111590 0.328744
vt 0.111442 0.329072
vt 0.111132 0.328907
vt 0.111028 0.328155
vt 0.111284 0.328072
vt 0.111351 0.328230
vt 0.111626 0.328133
vn -0.115028 -0.339470 0.933557
vn -0.115028 -0.339470 0.933557
vn -0.115028 -0.339470 0.933557
vn -0.115028 -0.339470 0.933557
vn 0.127236 -0.990210 0.057395
vn 0.127236 -0.990210 0.057395
vn 0.127236 -0.990210 0.057395
vn 0.127236 -0.990210 0.057395
vn 0.999956 0.005228 0.007858
vn 0.999955 0.005228 0.007858
vn 0.999956 0.005228 0.007858
vn 0.999955 0.005228 0.007858
vn -0.999936 -0.006769 -0.009078
vn -0.999936 -0.006769 -0.009078
vn -0.999936 -0.006769 -0.009078
vn -0.999936 -0.006769 -0.009078
vn -0.061832 0.997861 -0.021216
vn -0.061832 0.997861 -0.021216
vn -0.061832 0.997861 -0.021216
vn -0.061832 0.997861 -0.021216
vn 0.011076 -0.755002 0.655628
vn 0.011076 -0.755002 0.655628
vn 0.011076 -0.755002 0.655628
vn 0.011076 -0.755002 0.655628
vn 0.999967 -0.005644 -0.005797
vn 0.999967 -0.005644 -0.005797
vn 0.999967 -0.005644 -0.005797
vn 0.999967 -0.005644 -0.005797
vn -0.999997 -0.002308 -0.000601
vn -0.999997 -0.002308 -0.000601
vn -0.999997 -0.002308 -0.000601
vn -0.999997 -0.002308 -0.000601
vn 0.075914 0.652178 -0.754256
vn 0.075914 0.652177 -0.754256
vn 0.075914 0.652177 -0.754256
vn 0.075914 0.652177 -0.754256
vn 0.993561 -0.101872 -0.049584
vn 0.993561 -0.101872 -0.049584
vn 0.993561 -0.101872 -0.049584
vn 0.993561 -0.101872 -0.049584
vn -0.018470 -0.995137 0.096756
vn -0.018470 -0.995137 0.096756
vn -0.018470 -0.995137 0.096756
vn -0.018470 -0.995137 0.096756
vn -0.993663 0.101415 0.048461
vn -0.993663 0.101415 0.048461
vn -0.993663 0.101415 0.048461
vn -0.993663 0.101415 0.048461
vn 0.043149 0.996278 -0.074620
vn 0.043149 0.996278 -0.074620
vn 0.043149 0.996278 -0.074620
vn 0.043149 0.996278 -0.074620
vn 0.014597 -0.132466 -0.991080
vn 0.014597 -0.132466 -0.991080
vn 0.014597 -0.132466 -0.991080
vn 0.014597 -0.132466 -0.991080
vn 0.968918 0.245652 0.029195
vn 0.968918 0.245652 0.029195
vn 0.968918 0.245652 0.029195
vn 0.968918 0.245652 0.029195
vn -0.133299 -0.989344 -0.058568
vn -0.133299 -0.989344 -0.058568
vn 0.088252 -0.994708 -0.052609
vn 0.088252 -0.994708 -0.052609
vn 0.343508 0.939124 0.006963
vn 0.343508 0.939124 0.006963
vn -0.313891 0.949375 -0.012617
vn -0.313891 0.949375 -0.012617
vn -0.983944 0.174116 -0.039206
vn -0.983944 0.174116 -0.039206
vn -0.983944 0.174116 -0.039206
vn -0.983944 0.174116 -0.039206
vn -0.244658 0.031706 -0.969091
vn -0.244658 0.031706 -0.969091
vn 0.463180 0.126239 -0.877227
vn 0.463180 0.126239 -0.877227
vn -0.351503 0.389273 0.851418
vn -0.351503 0.389273 0.851418
vn 0.526472 0.387132 0.756939
vn 0.526472 0.387132 0.756939
vn 0.952124 0.305703 0.002260
vn 0.952124 0.305703 0.002260
vn 0.952124 0.305703 0.002260
vn 0.952124 0.305703 0.002260
vn 0.119068 -0.987238 0.105750
vn 0.119068 -0.987238 0.105750
vn -0.151440 -0.984339 0.090241
vn -0.151440 -0.984339 0.090241
vn -0.983018 0.161570 -0.087008
vn -0.983018 0.161570 -0.087008
vn -0.983018 0.161570 -0.087008
vn -0.983018 0.161570 -0.087008
vn -0.383052 0.915860 -0.120296
vn -0.383052 0.915860 -0.120296
vn 0.365865 0.926590 -0.087023
vn 0.365865 0.926590 -0.087023
vn -0.420712 -0.612309 0.669387
vn 0.529752 -0.577754 0.620937
vn 0.529752 -0.577754 0.620937
vn -0.420712 -0.612309 0.669387
vn 0.491991 0.818356 0.297049
vn -0.383809 0.859612 0.337281
vn -0.383809 0.859612 0.337281
vn 0.491991 0.818356 0.297049
vn -0.880785 0.318030 0.350820
vn -0.880785 0.318030 0.350820
vn -0.880785 0.318030 0.350820
vn -0.880785 0.318030 0.350820
vn 0.926654 0.294689 0.233389
vn 0.926654 0.294689 0.233389
vn 0.926654 0.294689 0.233389
vn 0.926654 0.294689 0.233389
vn -0.413055 0.645260 -0.642670
vn 0.477077 0.700206 -0.531139
vn 0.477077 0.700206 -0.531139
vn -0.413055 0.645260 -0.642670
vn 0.193592 -0.965403 -0.174697
vn -0.178146 -0.971400 -0.156993
vn -0.178146 -0.971400 -0.156993
vn 0.193592 -0.965403 -0.174697
vn -0.778653 0.142061 -0.611162
vn -0.778653 0.142061 -0.611162
vn -0.778653 0.142061 -0.611162
vn -0.778653 0.142061 -0.611162
vn 0.818523 0.302363 -0.488464
vn 0.818523 0.302363 -0.488464
vn 0.818523 0.302363 -0.488464
vn 0.818523 0.302363 -0.488464
vn -0.044034 0.483163 -0.874422
vn -0.044034 0.483163 -0.874422
vn -0.044034 0.483163 -0.874422
vn -0.044034 0.483163 -0.874422
vn -0.183299 0.982864 -0.019495
vn -0.183299 0.982864 -0.019495
vn -0.183299 0.982864 -0.019495
vn -0.183299 0.982864 -0.019495
vn -0.139265 0.499701 0.854929
vn -0.139265 0.499701 0.854929
vn -0.139265 0.499701 0.854929
vn -0.139265 0.499701 0.854929
vn 0.044033 -0.483164 0.874422
vn 0.044033 -0.483164 0.874422
vn 0.044033 -0.483164 0.874422
vn 0.044033 -0.483164 0.874422
vn 0.183302 -0.982863 0.019492
vn 0.183302 -0.982863 0.019492
vn 0.183302 -0.982863 0.019492
vn 0.183302 -0.982863 0.019492
vn 0.139267 -0.499701 -0.854929
vn 0.139267 -0.499701 -0.854929
vn 0.139267 -0.499701 -0.854929
vn 0.139267 -0.499701 -0.854929
vn 0.981518 0.184086 0.052292
vn 0.981518 0.184086 0.052291
vn 0.981519 0.184085 0.052290
vn 0.981518 0.184087 0.052292
vn 0.981518 0.184086 0.052291
vn 0.981518 0.184086 0.052292
vn 0.981518 0.184087 0.052291
vn 0.981518 0.184086 0.052291
vn 0.981518 0.184087 0.052292
vn 0.981518 0.184087 0.052291
vn 0.981518 0.184086 0.052291
vn 0.981518 0.184087 0.052291
vn 0.981518 0.184086 0.052290
vn 0.981518 0.184086 0.052291
vn 0.981518 0.184087 0.052291
vn 0.981519 0.184085 0.052290
vn 0.981518 0.184086 0.052291
vn 0.981518 0.184086 0.052290
vn -0.981519 -0.184084 -0.052292
vn -0.981518 -0.184085 -0.052292
vn -0.981518 -0.184085 -0.052293
vn -0.981518 -0.184085 -0.052293
vn -0.981518 -0.184085 -0.052292
vn -0.981518 -0.184086 -0.052292
vn -0.981518 -0.184086 -0.052292
vn -0.981518 -0.184085 -0.052292
vn -0.981518 -0.184086 -0.052290
vn -0.981518 -0.184086 -0.052290
vn -0.981518 -0.184085 -0.052292
vn -0.981518 -0.184086 -0.052290
vn -0.981518 -0.184086 -0.052290
vn -0.981518 -0.184085 -0.052292
vn -0.981518 -0.184085 -0.052291
vn -0.981518 -0.184085 -0.052291
vn -0.981518 -0.184085 -0.052292
vn -0.981519 -0.184084 -0.052292
vn -0.981518 -0.184087 -0.052289
vn -0.981518 -0.184087 -0.052289
vn -0.981518 -0.184087 -0.052289
vn -0.981518 -0.184087 -0.052289
vn -0.981518 -0.184090 -0.052292
vn -0.981518 -0.184090 -0.052292
vn -0.981518 -0.184090 -0.052292
vn -0.981518 -0.184090 -0.052292
vn -0.981518 -0.184087 -0.052289
vn -0.981518 -0.184087 -0.052289
vn -0.981518 -0.184087 -0.052289
vn -0.981518 -0.184087 -0.052289
vn -0.981518 -0.184088 -0.052291
vn -0.981518 -0.184088 -0.052291
vn -0.981518 -0.184088 -0.052291
vn -0.981518 -0.184088 -0.052291
vn -0.981518 -0.184086 -0.052291
vn -0.981518 -0.184086 -0.052291
vn -0.981518 -0.184086 -0.052291
vn -0.981518 -0.184086 -0.052291
vn -0.981518 -0.184087 -0.052291
vn -0.981518 -0.184087 -0.052291
vn -0.981518 -0.184087 -0.052291
vn -0.981518 -0.184087 -0.052291
vn -0.496981 -0.505562 0.705278
vn -0.496981 -0.505562 0.705278
vn -0.496981 -0.505562 0.705278
vn -0.496981 -0.505562 0.705278
vn -0.380119 -0.924859 -0.012087
vn -0.380119 -0.924859 -0.012087
vn -0.380119 -0.924859 -0.012087
vn -0.380119 -0.924859 -0.012087
vn -0.417074 -0.519435 -0.745812
vn -0.417074 -0.519435 -0.745812
vn -0.417074 -0.519435 -0.745812
vn -0.417074 -0.519435 -0.745812
vn -0.570885 0.305280 -0.762165
vn -0.570885 0.305280 -0.762164
vn -0.570885 0.305280 -0.762165
vn -0.570885 0.305280 -0.762165
vn -0.687745 0.724569 -0.044802
vn -0.687745 0.724569 -0.044802
vn -0.687745 0.724569 -0.044802
vn -0.687745 0.724569 -0.044802
vn -0.650795 0.319149 0.688920
vn -0.650795 0.319149 0.688920
vn -0.650795 0.319149 0.688920
vn -0.650795 0.319149 0.688920
vn 0.082381 -0.052195 -0.995233
vn 0.082381 -0.052195 -0.995233
vn -0.183299 0.982864 -0.019495
vn -0.183299 0.982864 -0.019495
vn -0.793077 -0.606732 0.053908
vn -0.793077 -0.606732 0.053908
vn -0.183299 0.982864 -0.019495
vn -0.183299 0.982864 -0.019495
vn -0.082701 0.052291 0.995202
vn -0.082701 0.052291 0.995202
vn -0.183299 0.982864 -0.019495
vn -0.183299 0.982864 -0.019495
vn 0.756570 0.651041 -0.061218
vn 0.756570 0.651041 -0.061218
vn -0.183299 0.982864 -0.019495
vn -0.183299 0.982864 -0.019495
vn 0.136808 -0.127707 -0.982331
vn 0.136808 -0.127707 -0.982331
vn -0.183299 0.982864 -0.019495
vn -0.183299 0.982864 -0.019495
vn -0.998216 -0.007480 -0.059230
vn -0.998216 -0.007480 -0.059230
vn -0.183299 0.982864 -0.019495
vn -0.183299 0.982864 -0.019495
vn -0.138278 0.127681 0.982129
vn -0.138278 0.127681 0.982129
vn -0.183299 0.982864 -0.019495
vn -0.183299 0.982864 -0.019495
vn 0.997931 0.008534 0.063719
vn 0.997931 0.008534 0.063719
vn -0.183299 0.982864 -0.019495
vn -0.183299 0.982864 -0.019495
s off
f 14/1/1 16/2/2 15/3/3 13/4/4
f 5/5/5 7/6/6 3/7/7 1/8/8
f 2/9/9 6/10/10 5/5/11 1/8/12
f 3/7/13 7/6/14 8/11/15 4/12/16
f 8/11/17 6/10/18 2/9/19 4/12/20
f 9/13/21 11/14/22 7/6/23 5/5/24
f 6/10/25 10/15/26 9/13/27 5/5/28
f 7/6/29 11/14/30 12/16/31 8/11/32
f 10/15/33 6/10/34 8/11/35 12/16/36
f 10/15/37 14/1/38 13/4/39 9/13/40
f 9/13/41 13/4/42 15/3/43 11/14/44
f 11/14/45 15/3/46 16/2/47 12/16/48
f 12/16/49 16/2/50 14/1/51 10/15/52
f 3/7/53 4/12/54 2/9/55 1/8/56
f 25/17/57 21/18/58 22/19/59 26/20/60
f 24/21/61 27/22/62 26/20/63 22/19/64
f 21/18/65 25/17/66 28/23/67 23/24/68
f 27/22/69 24/21/70 23/24/71 28/23/72
f 34/25/73 33/26/74 35/27/75 36/28/76
f 30/29/77 29/30/78 32/31/79 31/32/80
f 17/33/81 25/17/82 26/20/83 18/34/84
f 18/34/85 26/20/86 27/22/87 20/35/88
f 20/35/89 27/22/90 28/23/91 19/36/92
f 19/36/93 28/23/94 25/17/95 17/33/96
f 24/21/97 22/19/98 32/31/99 29/30/100
f 21/18/101 23/24/102 30/29/103 31/32/104
f 24/21/105 29/30/106 30/29/107 23/24/108
f 21/18/109 31/32/110 32/31/111 22/19/112
f 19/36/113 17/33/114 35/27/115 33/26/116
f 18/34/117 20/35/118 34/25/119 36/28/120
f 19/36/121 33/26/122 34/25/123 20/35/124
f 18/34/125 36/28/126 35/27/127 17/33/128
f 37/37/129 43/38/130 44/39/131 38/40/132
f 68/41/133 67/42/134 69/43/135 70/44/136
f 39/45/137 45/46/138 46/47/139 40/48/140
f 40/48/141 46/47/142 47/49/143 41/50/144
f 41/50/145 47/49/146 48/51/147 42/52/148
f 42/52/149 48/51/150 43/38/151 37/37/152
f 38/40/153 49/53/154 37/37/155
f 39/45/156 49/53/157 38/40/158
f 40/48/159 49/53/160 39/45/161
f 41/50/162 49/53/163 40/48/164
f 42/52/165 49/53/166 41/50/167
f 37/37/168 49/53/169 42/52/170
f 56/54/171 58/55/172 57/56/173
f 57/56/174 58/55/175 59/57/176
f 59/57/177 58/55/178 60/58/179
f 60/58/180 58/55/181 61/59/182
f 61/59/183 58/55/184 62/60/185
f 62/60/186 58/55/187 56/54/188
f 43/38/189 50/61/190 51/62/191 44/39/192
f 44/39/193 51/62/194 52/63/195 45/46/196
f 45/46/197 52/63/198 53/64/199 46/47/200
f 46/47/201 53/64/202 54/65/203 47/49/204
f 47/49/205 54/65/206 55/66/207 48/51/208
f 48/51/209 55/66/210 50/61/211 43/38/212
f 50/61/213 56/67/214 57/68/215 51/62/216
f 51/62/217 57/68/218 59/69/219 52/63/220
f 52/63/221 59/69/222 60/70/223 53/64/224
f 53/64/225 60/70/226 61/71/227 54/65/228
f 54/65/229 61/71/230 62/72/231 55/66/232
f 55/66/233 62/72/234 56/67/235 50/61/236
f 38/40/237 44/39/238 63/73/239 64/74/240
f 44/39/241 45/46/242 65/75/243 63/73/244
f 45/46/245 39/45/246 66/76/247 65/75/248
f 39/45/249 38/40/250 64/74/251 66/76/252
f 64/74/253 63/73/254 67/42/255 68/41/256
f 63/73/257 65/75/258 69/43/259 67/42/260
f 65/75/261 66/76/262 70/44/263 69/43/264
f 66/76/265 64/74/266 68/41/267 70/44/268
